<svg viewBox="0 0 3266 3012" version="1.1" xmlns="http://www.w3.org/2000/svg" xmlns:xlink="http://www.w3.org/1999/xlink" style="background: #FFFFFF;">
        <g id="Water" transform="translate(1479.999993, 1729.166675) scale(1, -1) translate(-1479.999993, -1729.166675) translate(272.999993, 594.666675)" fill="#77B6D8">
            <path d="M672.16665,1686.59636 L523.139987,1834.64035 C522.171987,1835.60969 520.915987,1836.10569 519.647987,1836.10169 L269.497327,1837.45102 C262.249327,1837.45769 254.999994,1840.20435 249.475994,1845.72835 L108.559997,1986.58568 C103.341331,1991.85102 100.231997,1998.84435 100.231997,2006.56435 L100.213331,2166.09235 C100.191997,2167.44568 99.6546642,2168.68435 98.7546642,2169.57901 L0.222666661,2268.15901 L46.4506655,2268.15901 L124.638664,2189.97101 C129.715997,2184.78968 132.902663,2177.72168 132.902663,2169.90835 L132.90133,2016.09102 C133.01333,2015.02568 133.454663,2014.06435 134.135997,2013.31102 L270.945327,1876.52035 C271.913327,1875.55369 273.167993,1875.05635 274.437326,1875.06035 L547.98532,1875.04169 C553.805319,1874.82302 559.567986,1872.80569 564.371986,1868.99502 L712.669316,1727.48702 L672.16665,1686.59636 Z M722.130649,1718.42302 L760.639981,1680.97102 C761.607981,1680.00302 762.862648,1679.50702 764.133314,1679.51102 L901.614644,1679.49502 C871.558645,1666.39102 846.302646,1644.33369 829.210646,1616.69369 L745.473315,1615.77503 L681.999983,1677.91502 L722.130649,1718.42302 Z" id="path22"></path>
            <path d="M2200.92048,1385.21997 L2200.90714,1598.30663 C2201.01514,1603.04929 2203.16448,1607.89729 2206.50448,1611.30263 L2364.79114,1769.58796 C2365.71514,1770.56396 2366.21247,1771.81862 2366.20847,1773.08662 L2366.21647,1929.12262 C2366.21647,1930.49062 2365.67914,1931.72929 2364.78047,1932.62395 L2281.01514,2017.99728 C2280.06581,2018.94662 2278.84048,2019.44262 2277.59781,2019.45862 L2204.39248,2019.78395 C2197.47915,2019.75062 2190.55648,2022.25328 2185.13515,2027.29062 L2129.06581,2083.35995 L2169.92581,2083.35995 L2199.70181,2053.58395 C2200.67381,2052.64262 2201.92981,2052.14662 2203.19781,2052.14928 L2290.26714,2052.13728 C2296.10848,2051.55595 2301.80181,2049.15062 2306.42581,2044.92395 L2405.19381,1946.15595 C2410.28581,1940.99195 2413.47114,1933.92395 2413.47114,1926.11195 L2413.61247,1748.51596 C2413.57381,1741.26529 2410.82981,1734.01462 2405.30447,1728.49062 L2262.80581,1585.88396 C2261.95248,1585.00529 2261.46314,1583.89463 2261.38048,1582.75063 L2261.44048,1385.21997 L2200.92048,1385.21997 Z" id="path26"></path>
            <path d="M1016.27864,1218.13797 L1016.27731,1390.3273 L952.46131,1454.2073 L952.46131,1530.57263 C952.46131,1538.71529 959.025309,1545.23929 967.085309,1545.23929 L1088.83331,1545.23929 L1088.83331,1533.85263 C1088.83331,1530.9073 1090.00797,1528.2033 1092.03864,1526.2793 L1096.18531,1522.15796 C1097.19997,1521.12063 1097.82264,1519.67663 1097.82264,1518.07796 L1097.82264,1305.13397 C1097.82264,1296.84597 1101.30531,1289.35663 1106.65331,1283.9273 L1209.6333,1181.0393 C1211.4533,1179.09264 1214.04664,1177.87264 1216.92664,1177.87264 C1222.4453,1177.87264 1226.9173,1182.34197 1226.9173,1187.8593 L1227.0333,1224.3153 C1227.0333,1228.9953 1225.38264,1233.3073 1222.87197,1236.7713 L1212.82797,1249.1153 C1211.97597,1250.06597 1211.45997,1251.31797 1211.45997,1252.69397 C1211.45997,1255.65264 1213.85864,1258.05264 1216.8173,1258.05264 L1291.4373,1258.05264 C1295.86397,1258.05264 1299.90397,1256.3673 1302.9293,1253.60464 L1498.3053,1058.22731 L1438.71063,1058.22731 L1360.65863,1136.3113 C1359.75063,1137.2353 1359.1933,1138.57797 1359.1933,1140.10864 L1359.16797,1169.58597 C1359.16797,1172.3313 1358.0733,1174.8633 1356.24797,1176.6833 L1336.66663,1196.2593 C1334.91597,1197.94997 1332.50797,1199.10997 1329.77463,1199.10997 L1276.67597,1199.10464 C1273.9613,1199.10464 1271.48663,1198.00864 1269.68797,1196.2553 L1235.6613,1170.3713 C1233.65864,1168.50597 1232.6533,1165.96997 1232.6533,1163.26197 C1232.6533,1160.52064 1233.7653,1158.02997 1235.55197,1156.22597 L1352.25197,1039.54731 C1345.69597,1035.22731 1339.61197,1030.24864 1334.09863,1024.70331 L1271.80263,962.612643 L1016.27864,1218.13797 Z M1061.50131,1410.86996 C1067.12397,1410.86996 1071.60131,1415.5393 1072.00131,1421.01263 L1072.00797,1479.86996 C1072.00797,1493.16463 1061.25064,1503.56063 1048.03064,1503.56063 L990.663975,1503.56063 C985.011975,1503.56063 980.429309,1498.9793 980.429309,1493.3273 C980.429309,1490.83396 981.301309,1488.73263 982.653309,1486.6993 L1055.35997,1412.90463 C1057.23997,1411.62063 1059.19464,1410.86996 1061.50131,1410.86996 L1061.50131,1410.86996 Z" id="path30"></path>
            <path d="M1467.76823,766.510381 L1427.05223,807.227713 L1308.56957,925.826377 L1370.86823,987.933042 C1376.4509,993.571708 1383.11223,998.139708 1390.51757,1001.30104 L1588.01356,803.84638 C1590.49756,801.39438 1593.91089,799.831713 1597.71356,799.831713 C1605.35089,799.831713 1611.54156,806.02238 1611.54156,813.659713 L1611.60423,881.198378 C1611.60423,884.193045 1610.30289,886.787711 1608.24689,888.603711 L1490.66556,1006.22771 L1550.30289,1006.22771 L1645.43489,911.094377 L1646.11089,910.419711 L1647.15356,909.375711 C1650.76823,905.526377 1653.07756,900.438377 1653.38289,894.818378 L1653.38689,812.98238 C1653.38689,811.977046 1654.22289,811.15438 1655.22956,811.15438 L1687.77089,811.15438 C1689.11222,811.19438 1690.35089,811.73038 1691.24422,812.63038 L1730.86422,852.205045 C1735.76289,856.354379 1742.10289,858.855712 1749.02556,858.855712 L1816.13622,858.853045 L1867.46689,909.898377 L1893.95889,909.898377 C1911.10422,909.898377 1926.62289,902.899711 1937.80422,891.603711 L1949.23222,880.193045 L1839.98422,770.913047 C1835.04422,766.009047 1828.33089,762.874381 1820.88689,762.634381 L1776.83222,762.634381 C1775.47889,762.610381 1774.24022,762.074381 1773.34689,761.174381 L1654.57356,642.482384 C1653.89089,641.699717 1653.48956,640.759717 1653.38289,639.787717 L1653.38289,396.557057 L1466.4349,210.810395 L1466.4349,439.011722 L1432.38023,465.003722 L1433.0589,510.049054 L1467.76823,510.049054 L1467.76823,766.510381 Z M1918.03089,959.347709 L2189.94155,1228.03837 L2190.57088,1237.05837 L2260.86554,1237.05837 L2260.86554,1203.70104 C2260.84821,1196.45304 2258.10154,1189.20237 2252.57754,1183.67837 L1985.98155,916.982377 L1974.57355,928.373043 C1959.37488,943.65571 1939.87222,954.641043 1918.03089,959.347709 L1918.03089,959.347709 Z M1653.38289,388.60239 L1653.38289,0.399733298 L1461.10156,0.399733298 L1461.10156,195.102395 L1653.38289,388.60239 Z" id="path34"></path>
        </g>
        <g id="Earthy-Ground" transform="translate(1902.500000, 1454.500000) scale(1, -1) translate(-1902.500000, -1454.500000) translate(1068.000000, 572.000000)">
            <path d="M249.6901,307.152371 L0.766106639,556.077698 L0.766106639,758.600359 L105.002104,758.600359 L105.002104,723.047027 C104.922104,693.844361 116.023437,664.616362 138.302103,642.337696 L335.403432,445.837701 C347.528765,433.712368 353.551431,417.791035 353.472764,401.897702 L353.480764,307.793704 L249.6901,307.152371 Z" id="path46" fill="#D9EDB0"></path>
            <path d="M157.446636,855.23049 L203.573302,855.837157 L203.573302,683.575828 L463.981295,423.166501 L434.106629,393.389169 C421.687963,380.970502 412.59463,366.385169 407.095963,350.854503 L407.085296,395.813168 C407.085296,430.837168 392.59063,462.4905 369.405297,485.091833 L177.973302,676.503828 C165.349303,688.797161 157.446636,705.983827 157.446636,724.882494 L157.446636,855.23049 Z" id="path50" fill="#D9EDB0"></path>
            <path d="M500.716094,386.361969 L555.966759,331.111303 L532.309427,307.455304 L452.806762,307.455304 L452.806762,312.680637 C452.726762,328.575303 458.750762,344.496636 470.876095,356.619303 L500.716094,386.361969 Z" id="path54" fill="#D9EDB0"></path>
            <path d="M272.3281,894.097556 C272.094767,890.913556 269.5161,888.453556 266.486767,888.453556 C265.321433,888.453556 264.2441,888.808223 263.3521,889.418889 L191.278769,962.570888 C190.517435,963.716221 190.082769,964.958888 190.082769,966.241554 C190.082769,969.317554 192.576102,971.809554 195.650768,971.809554 L253.018767,971.809554 C263.737433,971.809554 272.3281,963.424221 272.3281,952.786888 L272.3281,894.097556 Z" id="path58" fill="#D9EDB0"></path>
            <path d="M452.805962,212.807306 L655.70729,212.807306 L655.705957,0.693978358 L624.927291,0.693978358 L624.927291,42.3273107 C624.927291,105.104642 574.015292,155.993974 511.239294,155.993974 L467.159295,155.993974 C459.243295,155.993974 452.804629,162.411308 452.804629,170.327307 L452.805962,212.807306 Z" id="path62" fill="#D9EDB0"></path>
            <path d="M802.699153,277.381438 C800.195153,277.381438 797.939153,278.396105 796.264487,280.048105 L599.948492,476.325433 C606.153825,478.422766 612.801825,479.561433 619.715158,479.561433 L688.692489,479.561433 L810.11382,358.098769 C811.23782,357.104103 811.95782,355.700103 811.95782,354.116103 L811.89382,286.576105 C811.89382,281.498771 807.779153,277.381438 802.699153,277.381438 L802.699153,277.381438 Z M562.353826,605.96543 L636.729824,531.561432 L619.715158,531.561432 C598.233825,531.561432 578.143159,525.602765 561.005826,515.248099 L517.268494,558.981431 L562.353826,605.96543 Z" id="path66" fill="#D9EDB0"></path>
            <path d="M307.442632,870.86849 L307.442632,990.995154 C307.442632,993.82182 306.313299,996.447153 304.457299,998.339153 L300.231966,1002.54049 C299.139966,1003.57249 298.453299,1005.07382 298.453299,1006.76982 L298.453299,1018.15649 L343.669298,1018.15649 L343.669298,910.911156 C343.669298,908.075156 344.639965,905.472489 346.515965,903.445822 L379.093297,870.869823 L307.442632,870.86849 Z" id="path78" fill="#D9EDB0"></path>
            <path d="M517.268227,558.981698 L443.820229,632.411029 C442.858896,633.381696 442.273562,634.707029 442.273562,636.177696 C442.273562,637.711029 442.850896,639.009696 443.833562,639.924362 L477.930895,665.875028 C478.898895,666.820362 480.205561,667.388362 481.661561,667.388362 L534.760227,667.393695 C536.154893,667.393695 537.426893,666.815028 538.42156,665.856362 L557.961559,646.320362 C558.921559,645.361696 559.520226,644.003029 559.520226,642.500362 L559.545559,613.020363 C559.545559,610.357696 560.538893,607.812363 562.353559,605.965697 L563.302893,605.016363 L517.268227,558.981698 Z" id="path86" fill="#AEC173"></path>
            <path d="M1623.21607,1301.28635 L1668.21873,1301.28635 L1668.2814,1221.83835 C1668.23873,1213.42768 1665.0494,1204.96635 1658.60807,1198.52502 L1522.8254,1062.63435 L1522.78807,884.845023 L1513.6454,875.702356 C1501.8814,863.938357 1486.5414,857.91969 1471.11474,857.645024 L1471.15474,1055.96769 L1613.6054,1198.52502 C1620.04673,1204.96635 1623.23473,1213.42768 1623.27873,1221.83835 L1623.21607,1301.28635 Z" id="path90" fill="#D9EDB0"></path>
            <path d="M1234.43608,348.53637 L1513.27607,627.497696 C1519.71607,633.939029 1522.90807,642.397696 1522.9294,650.813695 L1522.9294,710.392361 L1471.12807,710.392361 L1471.10674,677.027028 C1471.0854,668.611028 1467.8934,660.153695 1461.45207,653.712362 L1195.50008,387.556369 L1234.43608,348.53637 Z" id="path94" fill="#D9EDB0"></path>
            <path d="M1156.49728,348.553303 L1048.85461,240.939972 C1043.11995,235.249306 1035.22128,231.582639 1026.53595,231.302639 L997.153282,231.302639 L997.145282,192.28264 L1065.55461,192.283974 C1074.23995,192.563974 1082.13728,196.23064 1087.87195,201.921307 L1195.43328,309.533304 L1156.49728,348.553303 Z" id="path98" fill="#D9EDB0"></path>
            <path d="M1522.92967,810.958358 L1504.48567,810.958358 C1510.79767,812.958358 1516.97234,815.522358 1522.92967,818.651691 L1522.92967,810.958358 Z" id="path102" fill="#D9EDB0"></path>
            <polygon id="path106" fill="#D9EDB0" points="1271.52594 654.041695 1328.57927 710.392361 1390.87794 710.392361 1390.85527 703.328361 1271.52594 585.472364"></polygon>
            <path d="M1535.763,1301.28635 L1535.66433,1246.12901 L1377.45367,1087.91968 C1373.32967,1083.71702 1370.64034,1077.69035 1370.50567,1071.69435 L1370.53634,857.645024 L1401.275,857.645024 L1401.24167,1071.69435 C1401.37767,1077.69035 1404.067,1083.71702 1408.18967,1087.91968 L1566.40167,1246.12901 L1566.583,1301.28635 L1535.763,1301.28635 Z" id="path110" fill="#D9EDB0"></path>
            <polygon id="path114" fill="#D9EDB0" points="298.611966 1166.10022 298.611966 1255.04288 360.954631 1317.38555 388.739964 1289.60021 348.461298 1249.32288 348.461298 1166.10022"></polygon>
            <polygon id="path118" fill="#D9EDB0" points="378.151031 1764.44007 540.30436 1764.44007 540.30436 1303.80941 450.444362 1303.80941 378.151031 1376.10141"></polygon>
            <g id="Mall" transform="translate(307.442766, 644.199162)" fill="#96B161">
                <path d="M793.101047,113.048931 L793.115714,184.684929 L793.09838,219.907595 C793.09838,225.026261 788.975714,229.174261 783.85838,229.174261 L783.85838,229.174261 L596.859718,229.174261 L596.859718,113.048931 L793.101047,113.048931 Z M497.525588,113.049197 L497.525588,229.174528 L415.59759,229.174528 L415.59759,127.715863 C415.59759,119.635864 422.164256,113.049197 430.285589,113.049197 L430.285589,113.049197 L497.525588,113.049197 Z" id="Mall-2"></path>
                <path d="M117.04933,226.669328 C123.16933,226.669328 128.170663,231.629328 128.170663,237.765327 L128.170663,297.195993 C128.170663,300.645326 130.967997,303.443992 134.418663,303.443992 L187.507995,303.793326 C199.579995,291.186659 216.577328,283.335993 235.409327,283.335993 L268.111993,283.335993 L268.111993,232.031994 L268.117327,143.554663 L268.111993,126.94933 C268.111993,98.3919975 275.58266,71.5799982 288.679993,48.3613321 L288.681326,1.13686838e-13 L203.634662,85.7053312 C199.786662,89.2199978 194.602662,91.401331 188.979995,91.401331 L114.36133,91.401331 C108.843997,91.401331 104.369331,86.9279978 104.369331,81.4106646 C104.369331,78.847998 105.335997,76.5079981 106.921331,74.7413315 L116.806664,62.5826651 C118.76533,59.8453318 119.94533,56.6026653 119.94533,53.0386653 L119.827997,16.5839996 C119.827997,13.625333 117.42933,11.2226664 114.470664,11.2226664 C112.907997,11.2226664 111.467997,11.925333 110.483997,12.997333 L7.48399981,115.907997 C2.91199993,120.54933 5.68434189e-14,126.883997 5.68434189e-14,133.850663 L5.68434189e-14,226.669328 L117.04933,226.669328 Z" id="Mall-1"></path>
            </g>
        </g>
        <g id="Monuments" transform="translate(1388.999965, 1410.666703)" fill="#FFFFFF">
            <path d="M189.917995,282.363333 L189.917995,270.055333 L193.057995,270.055333 L193.057995,282.363333 L198.291328,282.363333 L198.291328,270.055333 L201.432662,270.055333 L201.435328,284.980666 L173.169996,284.980666 L173.169996,270.055333 L176.309996,270.055333 L176.309996,282.363333 L181.544662,282.363333 L181.544662,270.055333 L184.684662,270.055333 L184.684662,282.363333 L189.917995,282.363333 Z M194.667328,290.213999 L187.301995,295.569999 L179.936662,290.213999 L194.667328,290.213999 Z M206.665995,264.822 L204.049995,264.822 L170.556662,264.822 L167.937996,264.822 L157.171329,264.822 L157.171329,295.072666 L177.719329,295.072666 L181.280662,297.663332 L161.511329,297.663332 L161.511329,302.896666 L213.091328,302.896666 L213.091328,297.663332 L193.323329,297.663332 L196.885995,295.072666 L217.429995,295.072666 L217.429995,264.822 L206.665995,264.822 Z M167.937996,270.055333 L167.937996,287.956666 L170.523329,289.837999 L162.405996,289.837999 L162.405996,270.055333 L167.937996,270.055333 Z M204.080662,289.837999 L206.668661,287.956666 L206.667328,270.055333 L212.195328,270.055333 L212.195328,289.837999 L204.080662,289.837999 Z M187.301995,314.856665 C182.467329,314.856665 177.992662,313.327332 174.331329,310.721999 L200.272662,310.721999 C196.612662,313.327332 192.135329,314.856665 187.301995,314.856665 L187.301995,314.856665 Z M187.301995,320.089999 C199.184662,320.089999 205.464662,313.975332 212.277995,305.488666 L162.325996,305.488666 C169.137996,313.975332 175.419329,320.089999 187.301995,320.089999 L187.301995,320.089999 Z" id="Jefferson" transform="translate(187.300662, 292.455999) scale(1, -1) translate(-187.300662, -292.455999) "></path>
            <path d="M152.208396,5.49668351 L152.20573,13.73935 L157.263063,13.73935 L157.263063,5.49668351 L161.888396,5.49668351 L161.885729,13.73935 L166.943062,13.73935 L166.943062,5.49668351 L171.565729,5.49668351 L171.565729,27.4660163 L166.943062,27.4660163 L166.943062,18.6366832 L161.888396,18.6366832 L161.885729,27.4660163 L157.263063,27.4660163 L157.263063,18.6366832 L152.208396,18.6366832 L152.20573,27.4660163 L147.583063,27.4660163 L147.583063,5.49668351 L152.208396,5.49668351 Z M176.797729,29.4046829 L176.797729,5.49668351 L180.311062,5.49668351 L180.311062,30.3513496 C179.127062,30.0873496 177.959062,29.7686829 176.797729,29.4046829 L176.797729,29.4046829 Z M189.057729,5.49668351 L189.057729,31.1100162 C188.480395,31.1353495 187.899062,31.1473495 187.312395,31.1473495 C186.719062,31.1473495 186.129729,31.1300162 185.544395,31.0953495 L185.544395,5.49668351 L189.057729,5.49668351 Z M222.396394,5.49668351 L222.397728,13.73935 L217.339061,13.73935 L217.339061,5.49668351 L212.716395,5.49668351 L212.717728,13.73935 L207.659061,13.73935 L207.659061,5.49668351 L203.037728,5.49668351 L203.037728,27.4660163 L207.659061,27.4660163 L207.659061,18.6366832 L212.715061,18.6366832 L212.716395,27.4660163 L217.339061,27.4660163 L217.339061,18.6366832 L222.395061,18.6366832 L222.396394,27.4660163 L227.017728,27.4660163 L227.017728,5.49668351 L222.396394,5.49668351 Z M197.804395,29.4046829 L197.804395,5.49668351 L194.292395,5.49668351 L194.292395,30.3513496 C195.473728,30.0873496 196.644395,29.7686829 197.804395,29.4046829 L197.804395,29.4046829 Z M187.312395,39.6566827 C181.267062,39.6566827 176.628396,38.050016 171.565729,35.9753494 L142.34973,35.9753494 L142.34973,41.2086826 L171.565729,41.2086826 C176.628396,43.2833492 181.267062,44.8913492 187.312395,44.8913492 C193.356395,44.8913492 197.973728,43.2833492 203.037728,41.2086826 L232.252394,41.2086826 L232.252394,35.9753494 L203.037728,35.9753494 C197.973728,38.050016 193.356395,39.6566827 187.312395,39.6566827 L187.312395,39.6566827 Z M142.34973,0.263350311 L142.34973,32.6993495 L171.565729,32.6993495 C176.628396,34.7740161 181.267062,36.3806827 187.312395,36.3806827 C193.356395,36.3806827 197.973728,34.7740161 203.037728,32.6993495 L232.252394,32.6993495 L232.252394,0.263350311 L142.34973,0.263350311 Z" id="White-House" transform="translate(187.301062, 22.577350) scale(1, -1) translate(-187.301062, -22.577350) "></path>
            <path d="M729.589315,141.611994 L738.730648,141.611994 L738.730648,136.553327 L729.589315,136.553327 L729.589315,141.611994 Z M757.418648,89.7546619 L710.902649,89.7546619 L710.902649,74.8279956 L714.439982,74.8279956 L714.439982,86.318662 L719.497315,86.318662 L719.497315,74.8279956 L723.035982,74.8279956 L723.035982,86.318662 L728.093315,86.318662 L728.093315,74.8279956 L731.631982,74.8279956 L731.631982,86.318662 L736.690648,86.318662 L736.690648,74.8279956 L740.226648,74.8279956 L740.226648,86.318662 L745.286648,86.318662 L745.286648,74.8279956 L748.822648,74.8279956 L748.822648,86.318662 L753.881314,86.318662 L753.881314,74.8279956 L757.418648,74.8279956 L757.418648,89.7546619 Z M715.199982,104.209328 L715.199982,94.8133285 L718.737315,94.8133285 L718.737315,100.773328 L723.797315,100.773328 L723.797315,94.8133285 L727.333315,94.8133285 L727.333315,100.773328 L732.391982,100.773328 L732.391982,94.8133285 L735.929315,94.8133285 L735.929315,100.773328 L740.986648,100.773328 L740.986648,94.8133285 L744.526648,94.8133285 L744.526648,100.773328 L749.583981,100.773328 L749.583981,94.8133285 L753.121315,94.8133285 L753.121315,104.209328 L715.199982,104.209328 Z M758.179981,109.257328 L758.179981,94.8133285 L762.475981,94.8133285 L762.475981,69.7693291 L705.843982,69.7693291 L705.843982,94.8133285 L710.142649,94.8133285 L710.141316,109.257328 L714.403982,109.257328 C714.403982,120.451994 720.986649,130.111994 730.511982,134.526661 L737.819982,134.526661 C747.345315,130.111994 753.911981,120.451994 753.911981,109.257328 L758.179981,109.257328 Z M748.885315,109.270661 C748.885315,117.965328 744.022648,125.521328 736.863982,129.354661 L731.467982,129.354661 C724.309315,125.521328 719.445315,117.965328 719.445315,109.270661 L723.035982,109.270661 L723.035982,113.802661 L728.093315,113.802661 L728.093315,109.270661 L731.631982,109.270661 L731.631982,113.802661 L736.690648,113.802661 L736.690648,109.270661 L740.226648,109.270661 L740.226648,113.802661 L745.286648,113.802661 L745.286648,109.270661 L748.885315,109.270661 Z M731.631982,152.567994 L736.690648,152.567994 L736.690648,143.426661 L731.631982,143.426661 L731.631982,152.567994 Z" id="Capital" transform="translate(734.159982, 111.168661) scale(1, -1) translate(-734.159982, -111.168661) "></path>
            <path d="M197.539062,151.47266 L201.692395,60.0553294 L172.908396,60.0553294 L177.064396,151.47266 L187.301729,165.94466 L197.539062,151.47266 Z M192.380395,149.701994 L187.301729,156.881994 L182.221729,149.701994 L178.385729,65.2886626 L196.216395,65.2886626 L192.380395,149.701994 Z" id="Washington" transform="translate(187.300395, 112.999995) scale(1, -1) translate(-187.300395, -112.999995) "></path>
            <path d="M14.4374663,139.329461 L26.581466,139.329461 L26.581466,150.641461 L80.194798,150.641461 L80.194798,139.329461 L92.3414644,139.329461 L92.3414644,134.094795 L89.8721311,134.094795 L89.8721311,107.377462 L92.3414644,107.377462 L92.3414644,102.144129 L14.4374663,102.144129 L14.4374663,107.377462 L16.9067996,107.377462 L16.9067996,134.094795 L14.4374663,134.094795 L14.4374663,139.329461 Z M31.8147992,139.329461 L74.9614648,139.329461 L74.9614648,145.409461 L31.8147992,145.409461 L31.8147992,139.329461 Z M84.6374646,134.094795 L22.1387994,134.094795 L22.1387994,107.377462 L26.581466,107.377462 L26.581466,129.525462 L31.8147992,129.525462 L31.8147992,107.377462 L36.2574658,107.377462 L36.2574658,129.525462 L41.4921323,129.525462 L41.4921323,107.377462 L45.9334655,107.377462 L45.9334655,129.525462 L51.1667987,129.525462 L51.1667987,107.377462 L55.6094653,107.377462 L55.6094653,129.525462 L60.8441318,129.525462 L60.8441318,107.377462 L65.2867984,107.377462 L65.2867984,129.525462 L70.5201316,129.525462 L70.5201316,107.377462 L74.9627981,107.377462 L74.9627981,129.525462 L80.194798,129.525462 L80.194798,107.377462 L84.6374646,107.377462 L84.6374646,134.094795 Z" id="Lincoln" transform="translate(53.389465, 126.392795) scale(1, -1) translate(-53.389465, -126.392795) "></path>
        </g>
        <g id="County-Lines" transform="translate(1533.166660, 1465.833342) scale(1, -1) translate(-1533.166660, -1465.833342) translate(256.666660, 68.333342)">
            <path d="M16.5559996,2267.82541 L115.087997,2169.24541 C115.987997,2168.35208 116.52533,2167.11208 116.546664,2165.75875 L116.56533,2006.23075 C116.56533,1998.51075 119.674664,1991.51875 124.89333,1986.25208 L265.809327,1845.39475 C271.333327,1839.87075 278.583993,1837.12542 285.830659,1837.11742 L535.98132,1835.76809 C537.250653,1835.77209 538.50532,1835.27609 539.47332,1834.30675 L688.521316,1686.26276 L680.92265,1677.88409 L532.94532,1824.45209 L285.767993,1825.78409 C275.687993,1825.80675 265.53466,1829.64142 257.797327,1837.38009 L116.86133,1978.25608 C109.663997,1985.51875 105.231997,1995.35075 105.231997,2006.22942 L105.214664,2163.09208 L0.0759999731,2268.29341 L16.5559996,2267.82541 Z" id="path242" fill="#DBD4CB"></path>
            <path d="M1469.04036,176.102796 L1469.04036,432.340123 L1436.3177,458.396122 L1436.3177,522.11212 L1471.70703,522.11212 L1471.70703,760.206781 L1315.64703,916.266777 L1324.9057,925.497444 L1484.7817,765.622781 L1484.7817,509.036121 L1449.39236,509.036121 L1449.39236,464.905455 L1482.11503,438.849456 L1482.11503,208.777461 L2058.93235,786.628114 L2068.35101,777.222781 L1469.04036,176.102796 Z M2095.66968,823.429446 L2508.79367,1237.29477 L2527.039,1237.29477 L2105.06568,814.04678 L2095.66968,823.429446 Z" id="path246" fill="#DBD4CB"></path>
            <polygon id="path254" fill="#DBD4CB" points="1278.8697 953.044243 1020.25371 1211.66024 1020.25371 1383.92157 967.805709 1436.3749 967.805709 1454.86556 1033.32837 1389.33757 1033.32837 1217.0749 1288.1297 962.273576"></polygon>
            <path d="M2429.85407,1440.86716 L2399.83807,1470.88716 L2409.07941,1480.12716 L2439.09541,1450.1085 L2429.85407,1440.86716 Z M2396.53941,1474.18583 L1843.70342,2027.07782 L1852.94475,2036.32048 L2405.77941,1483.42716 L2396.53941,1474.18583 Z M1773.34876,2097.43915 L1560.34343,2310.46448 L1560.34343,2328.95248 L1782.59276,2106.68181 L1773.34876,2097.43915 Z M2534.1474,1336.5645 L2433.15541,1437.56716 L2442.39407,1446.80716 L2552.62474,1336.5645 L2534.1474,1336.5645 Z M1508.34343,2362.47114 L1445.82343,2424.99781 L1019.05144,1998.26848 L1009.81011,2007.50982 L1445.79143,2443.51914 L1508.34343,2380.96047 L1508.34343,2362.47114 Z M982.278109,1961.49915 L698.332783,1677.58182 L761.807448,1615.44183 L845.544779,1616.36049 C843.058112,1612.34049 840.746112,1608.20449 838.616779,1603.95916 L755.063448,1603.71516 L679.882116,1677.56182 L973.039442,1970.73782 L982.278109,1961.49915 Z" id="path258" fill="#DBD4CB"></path>
            <polygon id="path260" fill="#DBD4CB" points="969.963976 222.446661 980.630642 222.446661 980.630642 211.779995 969.963976 211.779995"></polygon>
            <polygon id="path262" fill="#DBD4CB" points="969.963976 238.446661 980.630642 238.446661 980.630642 227.779994 969.963976 227.779994"></polygon>
            <polygon id="path262" fill="#DBD4CB" points="969.963976 254.446661 980.630642 254.446661 980.630642 243.779994 969.963976 243.779994"></polygon>
            <polygon id="path262" fill="#DBD4CB" points="969.963976 270.446661 980.630642 270.446661 980.630642 259.779994 969.963976 259.779994"></polygon>
            <polygon id="path262" fill="#DBD4CB" points="969.963976 286.446661 980.630642 286.446661 980.630642 275.779994 969.963976 275.779994"></polygon>
            <polygon id="path264" fill="#DBD4CB" points="969.963976 360.489324 980.630642 360.489324 980.630642 349.822658 969.963976 349.822658"></polygon>
            <polygon id="path266" fill="#DBD4CB" points="969.963976 376.309324 980.630642 376.309324 980.630642 365.642658 969.963976 365.642658"></polygon>
            <polygon id="path268" fill="#DBD4CB" points="969.963976 392.130657 980.630642 392.130657 980.630642 381.46399 969.963976 381.46399"></polygon>
            <polygon id="path270" fill="#DBD4CB" points="969.963976 344.489325 980.630642 344.489325 980.630642 333.822658 969.963976 333.822658"></polygon>
            <polygon id="path272" fill="#DBD4CB" points="969.963976 408.130656 980.630642 408.130656 980.630642 397.46399 969.963976 397.46399"></polygon>
            <polygon id="path274" fill="#DBD4CB" points="969.963976 423.949323 980.630642 423.949323 980.630642 413.282656 969.963976 413.282656"></polygon>
            <polygon id="path278" fill="#DBD4CB" points="973.020776 433.575456 980.563442 441.118122 988.106109 433.575456 980.563442 426.034123"></polygon>
            <polygon id="path282" fill="#DBD4CB" points="984.208375 444.763056 991.749709 452.304389 999.292375 444.763056 991.749709 437.220389"></polygon>
            <polygon id="path286" fill="#DBD4CB" points="995.394508 455.949189 1002.93717 463.490522 1010.47851 455.949189 1002.93717 448.406522"></polygon>
            <polygon id="path290" fill="#DBD4CB" points="1006.58064 467.135455 1014.12331 474.678121 1021.66597 467.135455 1014.12331 459.594122"></polygon>
            <polygon id="path294" fill="#DBD4CB" points="1017.76824 478.322921 1025.30957 485.864255 1032.85224 478.322921 1025.30957 470.780255"></polygon>
            <polygon id="path298" fill="#DBD4CB" points="1028.95437 489.509054 1036.49704 497.050388 1044.03837 489.509054 1036.49704 481.966388"></polygon>
            <polygon id="path302" fill="#DBD4CB" points="1040.14064 500.695321 1047.68331 508.237987 1055.22597 500.695321 1047.68331 493.153988"></polygon>
            <polygon id="path306" fill="#DBD4CB" points="1050.84637 511.825454 1058.38771 519.366787 1065.93171 511.825454 1058.38771 504.282787"></polygon>
            <polygon id="path310" fill="#DBD4CB" points="1062.03384 523.01172 1069.57517 530.554387 1077.11784 523.01172 1069.57517 515.470387"></polygon>
            <polygon id="path314" fill="#DBD4CB" points="1073.21877 534.197853 1080.76277 541.74052 1088.30411 534.197853 1080.76277 526.65652"></polygon>
            <polygon id="path316" fill="#DBD4CB" points="969.963976 206.626662 980.630642 206.626662 980.630642 195.959995 969.963976 195.959995"></polygon>
            <polygon id="path318" fill="#DBD4CB" points="985.527975 206.626662 996.194642 206.626662 996.194642 195.959995 985.527975 195.959995"></polygon>
            <polygon id="path320" fill="#DBD4CB" points="1001.09064 206.626662 1011.75731 206.626662 1011.75731 195.959995 1001.09064 195.959995"></polygon>
            <polygon id="path322" fill="#DBD4CB" points="1016.65597 206.626662 1027.32264 206.626662 1027.32264 195.959995 1016.65597 195.959995"></polygon>
            <polygon id="path324" fill="#DBD4CB" points="1032.21997 206.626662 1042.88664 206.626662 1042.88664 195.959995 1032.21997 195.959995"></polygon>
            <polygon id="path326" fill="#DBD4CB" points="1047.78397 206.626662 1058.45064 206.626662 1058.45064 195.959995 1047.78397 195.959995"></polygon>
            <polygon id="path328" fill="#DBD4CB" points="1063.34797 206.626662 1074.01464 206.626662 1074.01464 195.959995 1063.34797 195.959995"></polygon>
            <polygon id="path330" fill="#DBD4CB" points="1078.91197 206.626662 1089.57864 206.626662 1089.57864 195.959995 1078.91197 195.959995"></polygon>
            <polygon id="path332" fill="#DBD4CB" points="1094.47597 206.626662 1105.14264 206.626662 1105.14264 195.959995 1094.47597 195.959995"></polygon>
            <polygon id="path334" fill="#DBD4CB" points="1110.03864 206.626662 1120.70531 206.626662 1120.70531 195.959995 1110.03864 195.959995"></polygon>
            <polygon id="path336" fill="#DBD4CB" points="1125.60397 206.626662 1136.27064 206.626662 1136.27064 195.959995 1125.60397 195.959995"></polygon>
            <polygon id="path338" fill="#DBD4CB" points="1141.16797 206.626662 1151.83464 206.626662 1151.83464 195.959995 1141.16797 195.959995"></polygon>
            <polygon id="path340" fill="#DBD4CB" points="1156.73197 206.626662 1167.39864 206.626662 1167.39864 195.959995 1156.73197 195.959995"></polygon>
            <polygon id="path342" fill="#DBD4CB" points="1172.29597 206.626662 1182.96264 206.626662 1182.96264 195.959995 1172.29597 195.959995"></polygon>
            <polygon id="path344" fill="#DBD4CB" points="1187.85997 206.626662 1198.52664 206.626662 1198.52664 195.959995 1187.85997 195.959995"></polygon>
            <polygon id="path346" fill="#DBD4CB" points="1203.42397 206.626662 1214.09064 206.626662 1214.09064 195.959995 1203.42397 195.959995"></polygon>
            <polygon id="path348" fill="#DBD4CB" points="1218.98664 206.626662 1229.6533 206.626662 1229.6533 195.959995 1218.98664 195.959995"></polygon>
            <polygon id="path350" fill="#DBD4CB" points="1234.55197 206.626662 1245.21864 206.626662 1245.21864 195.959995 1234.55197 195.959995"></polygon>
            <polygon id="path352" fill="#DBD4CB" points="1250.11597 206.626662 1260.78264 206.626662 1260.78264 195.959995 1250.11597 195.959995"></polygon>
            <polygon id="path354" fill="#DBD4CB" points="1265.67997 206.626662 1276.34663 206.626662 1276.34663 195.959995 1265.67997 195.959995"></polygon>
            <polygon id="path356" fill="#DBD4CB" points="1281.24397 206.626662 1291.91063 206.626662 1291.91063 195.959995 1281.24397 195.959995"></polygon>
            <polygon id="path358" fill="#DBD4CB" points="1296.80663 206.626662 1307.4733 206.626662 1307.4733 195.959995 1296.80663 195.959995"></polygon>
            <polygon id="path360" fill="#DBD4CB" points="1312.37197 206.626662 1323.03863 206.626662 1323.03863 195.959995 1312.37197 195.959995"></polygon>
            <polygon id="path362" fill="#DBD4CB" points="1327.93463 206.626662 1338.6013 206.626662 1338.6013 195.959995 1327.93463 195.959995"></polygon>
            <polygon id="path364" fill="#DBD4CB" points="1343.49997 206.626662 1354.16663 206.626662 1354.16663 195.959995 1343.49997 195.959995"></polygon>
            <polygon id="path366" fill="#DBD4CB" points="1359.06397 206.626662 1369.42797 206.626662 1369.42797 195.959995 1359.06397 195.959995"></polygon>
            <polygon id="path368" fill="#DBD4CB" points="1374.3253 206.626662 1384.2813 206.626662 1384.2813 195.959995 1374.3253 195.959995"></polygon>
            <polygon id="path372" fill="#DBD4CB" points="1083.76557 544.906253 1091.30824 552.447586 1098.85091 544.906253 1091.30824 537.363587"></polygon>
            <polygon id="path376" fill="#DBD4CB" points="1072.28637 556.092386 1079.82771 563.635053 1087.37037 556.092386 1079.82771 548.54972"></polygon>
            <polygon id="path380" fill="#DBD4CB" points="1191.66664 451.802122 1199.20797 444.259456 1191.66664 436.716789 1184.12397 444.259456"></polygon>
            <polygon id="path384" fill="#DBD4CB" points="1180.47917 462.988255 1188.02184 455.445589 1180.47917 447.904255 1172.93784 455.445589"></polygon>
            <polygon id="path388" fill="#DBD4CB" points="1169.2929 474.174521 1176.83557 466.633188 1169.2929 459.090522 1161.75024 466.633188"></polygon>
            <polygon id="path392" fill="#DBD4CB" points="1158.10677 485.361988 1165.6481 477.819321 1158.10677 470.276655 1150.5641 477.819321"></polygon>
            <polygon id="path396" fill="#DBD4CB" points="1146.9193 496.548121 1154.46197 489.005454 1146.9193 481.464121 1139.37797 489.005454"></polygon>
            <polygon id="path400" fill="#DBD4CB" points="1135.73304 507.734387 1143.2757 500.193054 1135.73304 492.650388 1128.19037 500.193054"></polygon>
            <polygon id="path404" fill="#DBD4CB" points="1124.54691 518.921854 1132.08824 511.379187 1124.54691 503.836521 1117.00424 511.379187"></polygon>
            <polygon id="path408" fill="#DBD4CB" points="1113.35931 530.10812 1120.90197 522.565454 1113.35931 515.02412 1105.81797 522.565454"></polygon>
            <polygon id="path412" fill="#DBD4CB" points="1102.17317 541.294253 1109.71584 533.75292 1102.17317 526.210254 1094.63051 533.75292"></polygon>
            <polygon id="path416" fill="#DBD4CB" points="1079.79944 563.667986 1087.34211 556.125319 1079.79944 548.583986 1072.25811 556.125319"></polygon>
            <polygon id="path420" fill="#DBD4CB" points="1068.61331 574.854119 1076.15597 567.312786 1068.61331 559.770119 1061.07064 567.312786"></polygon>
            <polygon id="path424" fill="#DBD4CB" points="1057.42704 586.041719 1064.96837 578.499052 1057.42704 570.956386 1049.88437 578.499052"></polygon>
            <polygon id="path428" fill="#DBD4CB" points="1046.23957 597.227852 1053.78224 589.685185 1046.23957 582.143852 1038.69824 589.685185"></polygon>
            <polygon id="path432" fill="#DBD4CB" points="1035.05331 608.413985 1042.59597 600.872652 1035.05331 593.329985 1027.51064 600.872652"></polygon>
            <polygon id="path436" fill="#DBD4CB" points="1023.86717 619.601585 1031.40851 612.058918 1023.86717 604.516252 1016.32451 612.058918"></polygon>
            <polygon id="path440" fill="#DBD4CB" points="1012.67971 630.787718 1020.22237 623.245051 1012.67971 615.703718 1005.13837 623.245051"></polygon>
            <polygon id="path444" fill="#DBD4CB" points="1001.49344 641.973984 1009.03611 634.432651 1001.49344 626.889984 993.950775 634.432651"></polygon>
            <polygon id="path448" fill="#DBD4CB" points="990.307309 653.16145 997.848642 645.618784 990.307309 638.076117 982.764642 645.618784"></polygon>
            <polygon id="path452" fill="#DBD4CB" points="979.119709 664.347583 986.662375 656.804917 979.119709 649.263584 971.578376 656.804917"></polygon>
            <polygon id="path456" fill="#DBD4CB" points="967.933576 675.53385 975.476242 667.992517 967.933576 660.44985 960.390909 667.992517"></polygon>
            <polygon id="path460" fill="#DBD4CB" points="956.747309 686.721316 964.288643 679.17865 956.747309 671.635983 949.204643 679.17865"></polygon>
            <polygon id="path464" fill="#DBD4CB" points="945.559843 697.907583 953.102509 690.364916 945.559843 682.823583 938.01851 690.364916"></polygon>
            <polygon id="path468" fill="#DBD4CB" points="934.37371 709.093716 941.916376 701.552382 934.37371 694.009716 926.831043 701.552382"></polygon>
            <polygon id="path472" fill="#DBD4CB" points="1199.23437 444.069056 1209.90104 444.067722 1209.90104 433.401056 1199.23437 433.402389"></polygon>
            <polygon id="path474" fill="#DBD4CB" points="1210.04797 449.071989 1199.3813 449.071989 1199.3813 459.738655 1210.04797 459.738655"></polygon>
            <polygon id="path476" fill="#DBD4CB" points="1210.04797 464.891988 1199.3813 464.891988 1199.3813 475.558655 1210.04797 475.558655"></polygon>
            <polygon id="path480" fill="#DBD4CB" points="1210.0481 480.712255 1199.38144 480.712255 1199.3801 491.378921 1210.04677 491.378921"></polygon>
            <polygon id="path482" fill="#DBD4CB" points="1210.19464 496.382654 1199.52797 496.382654 1199.52797 507.049321 1210.19464 507.049321"></polygon>
            <polygon id="path486" fill="#DBD4CB" points="1210.1953 512.203054 1199.52864 512.203054 1199.5273 522.86972 1210.19397 522.86972"></polygon>
            <polygon id="path488" fill="#DBD4CB" points="1210.19464 528.023987 1199.52797 528.023987 1199.52797 538.690653 1210.19464 538.690653"></polygon>
            <polygon id="path490" fill="#DBD4CB" points="1352.12663 527.87732 1341.45997 527.87732 1341.45997 538.543987 1352.12663 538.543987"></polygon>
            <polygon id="path494" fill="#DBD4CB" points="1336.3073 538.54292 1336.30597 527.876253 1325.6393 527.876253 1325.64063 538.54292"></polygon>
            <polygon id="path498" fill="#DBD4CB" points="1320.4869 538.54292 1320.48557 527.876253 1309.8189 527.876253 1309.82023 538.54292"></polygon>
            <polygon id="path500" fill="#DBD4CB" points="1304.81463 528.023987 1294.14797 528.023987 1294.14797 538.690653 1304.81463 538.690653"></polygon>
            <polygon id="path502" fill="#DBD4CB" points="1288.99463 528.023987 1278.32797 528.023987 1278.32797 538.690653 1288.99463 538.690653"></polygon>
            <polygon id="path506" fill="#DBD4CB" points="1273.1745 538.69012 1273.1745 528.023453 1262.50784 528.02212 1262.50784 538.688787"></polygon>
            <polygon id="path508" fill="#DBD4CB" points="1257.5053 527.87732 1246.83864 527.87732 1246.83864 538.543987 1257.5053 538.543987"></polygon>
            <polygon id="path510" fill="#DBD4CB" points="1241.6853 527.875987 1231.01864 527.875987 1231.01864 538.542653 1241.6853 538.542653"></polygon>
            <polygon id="path512" fill="#DBD4CB" points="1225.86397 527.875987 1215.1973 527.875987 1215.1973 538.542653 1225.86397 538.542653"></polygon>
            <polygon id="path516" fill="#DBD4CB" points="587.588519 1055.88024 595.129852 1048.33757 587.588519 1040.79491 580.045852 1048.33757"></polygon>
            <polygon id="path520" fill="#DBD4CB" points="576.401052 1067.06637 583.943719 1059.52371 576.401052 1051.98237 568.859719 1059.52371"></polygon>
            <polygon id="path524" fill="#DBD4CB" points="565.214786 1078.25264 572.757452 1070.71131 565.214786 1063.16864 557.672119 1070.71131"></polygon>
            <polygon id="path528" fill="#DBD4CB" points="554.028653 1089.44011 561.569986 1081.89744 554.028653 1074.35477 546.485986 1081.89744"></polygon>
            <polygon id="path532" fill="#DBD4CB" points="542.841186 1100.62624 550.383853 1093.08357 542.841186 1085.54224 535.299853 1093.08357"></polygon>
            <polygon id="path536" fill="#DBD4CB" points="531.65492 1111.81251 539.197586 1104.27117 531.65492 1096.72851 524.112254 1104.27117"></polygon>
            <polygon id="path540" fill="#DBD4CB" points="520.468787 1122.99997 528.01012 1115.45731 520.468787 1107.91464 512.92612 1115.45731"></polygon>
            <polygon id="path544" fill="#DBD4CB" points="509.281187 1134.1861 516.823854 1126.64344 509.281187 1119.10211 501.739854 1126.64344"></polygon>
            <polygon id="path548" fill="#DBD4CB" points="498.095054 1145.37237 505.637721 1137.83104 498.095054 1130.28837 490.552388 1137.83104"></polygon>
            <polygon id="path552" fill="#DBD4CB" points="486.908788 1156.55984 494.450121 1149.01717 486.908788 1141.4745 479.366121 1149.01717"></polygon>
            <polygon id="path556" fill="#DBD4CB" points="475.721321 1167.7461 483.263988 1160.20344 475.721321 1152.6621 468.179988 1160.20344"></polygon>
            <polygon id="path560" fill="#DBD4CB" points="464.535188 1178.93224 472.077855 1171.3909 464.535188 1163.84824 456.992522 1171.3909"></polygon>
            <polygon id="path564" fill="#DBD4CB" points="453.348922 1190.1197 460.890255 1182.57704 453.348922 1175.03437 445.806255 1182.57704"></polygon>
            <polygon id="path568" fill="#DBD4CB" points="442.161456 1201.30597 449.704122 1193.7633 442.161456 1186.22197 434.620122 1193.7633"></polygon>
            <polygon id="path572" fill="#DBD4CB" points="430.975189 1212.4921 438.517856 1204.95077 430.975189 1197.4081 423.432523 1204.95077"></polygon>
            <polygon id="path576" fill="#DBD4CB" points="419.789056 1223.6797 427.330389 1216.13704 419.789056 1208.59437 412.24639 1216.13704"></polygon>
            <polygon id="path580" fill="#DBD4CB" points="408.60159 1234.86584 416.144256 1227.32317 408.60159 1219.78184 401.060257 1227.32317"></polygon>
            <polygon id="path584" fill="#DBD4CB" points="397.415323 1246.0521 404.95799 1238.51077 397.415323 1230.9681 389.872657 1238.51077"></polygon>
            <polygon id="path588" fill="#DBD4CB" points="386.22919 1257.23957 393.770523 1249.6969 386.22919 1242.15424 378.686524 1249.6969"></polygon>
            <polygon id="path592" fill="#DBD4CB" points="375.041724 1268.4257 382.58439 1260.88304 375.041724 1253.3417 367.500391 1260.88304"></polygon>
            <polygon id="path596" fill="#DBD4CB" points="363.855458 1279.61197 371.398124 1272.07063 363.855458 1264.52797 356.312791 1272.07063"></polygon>
            <polygon id="path600" fill="#DBD4CB" points="923.187444 720.281182 930.728777 712.738516 923.187444 705.195849 915.644777 712.738516"></polygon>
            <polygon id="path604" fill="#DBD4CB" points="911.999977 731.467448 919.542644 723.924782 911.999977 716.383449 904.458644 723.924782"></polygon>
            <polygon id="path608" fill="#DBD4CB" points="900.813844 742.653581 908.356511 735.112248 900.813844 727.569582 893.271178 735.112248"></polygon>
            <polygon id="path612" fill="#DBD4CB" points="598.774785 1044.69264 606.317451 1037.15131 598.774785 1029.60864 591.232119 1037.15131"></polygon>
            <polygon id="path616" fill="#DBD4CB" points="609.960918 1033.50651 617.502251 1025.96384 609.960918 1018.42251 602.419585 1025.96384"></polygon>
            <polygon id="path620" fill="#DBD4CB" points="621.148384 1022.32024 628.689718 1014.77757 621.148384 1007.23491 613.605718 1014.77757"></polygon>
            <polygon id="path624" fill="#DBD4CB" points="632.334651 1011.13277 639.877317 1003.59144 632.334651 996.048775 624.791984 1003.59144"></polygon>
            <polygon id="path628" fill="#DBD4CB" points="643.520784 999.946642 651.062117 992.403975 643.520784 984.862642 635.979451 992.403975"></polygon>
            <polygon id="path632" fill="#DBD4CB" points="654.708384 988.760375 662.249717 981.217709 654.708384 973.675042 647.165717 981.217709"></polygon>
            <polygon id="path636" fill="#DBD4CB" points="665.894517 977.572909 673.437183 970.031576 665.894517 962.488909 658.35185 970.031576"></polygon>
            <polygon id="path640" fill="#DBD4CB" points="677.08065 966.386643 684.621983 958.843976 677.08065 951.302643 669.539317 958.843976"></polygon>
            <polygon id="path644" fill="#DBD4CB" points="688.268249 955.200509 695.809583 947.657843 688.268249 940.115176 680.725583 947.657843"></polygon>
            <polygon id="path648" fill="#DBD4CB" points="699.454382 944.013043 706.997049 936.47171 699.454382 928.929043 691.911716 936.47171"></polygon>
            <polygon id="path652" fill="#DBD4CB" points="710.640649 932.826777 718.181982 925.28411 710.640649 917.742777 703.099316 925.28411"></polygon>
            <polygon id="path656" fill="#DBD4CB" points="721.828115 921.640644 729.369448 914.097977 721.828115 906.555311 714.285449 914.097977"></polygon>
            <polygon id="path660" fill="#DBD4CB" points="733.014248 910.453044 740.556915 902.911711 733.014248 895.369044 725.471582 902.911711"></polygon>
            <polygon id="path664" fill="#DBD4CB" points="744.200515 899.266911 751.741848 891.724244 744.200515 884.182911 736.659182 891.724244"></polygon>
            <polygon id="path668" fill="#DBD4CB" points="755.387981 888.080644 762.929314 880.537978 755.387981 872.995312 747.845315 880.537978"></polygon>
            <polygon id="path672" fill="#DBD4CB" points="766.574247 876.893178 774.116914 869.351845 766.574247 861.809178 759.031581 869.351845"></polygon>
            <polygon id="path676" fill="#DBD4CB" points="777.760381 865.707045 785.301714 858.164379 777.760381 850.623045 770.219047 858.164379"></polygon>
            <polygon id="path680" fill="#DBD4CB" points="788.947847 854.520779 796.48918 846.978112 788.947847 839.435446 781.40518 846.978112"></polygon>
            <polygon id="path684" fill="#DBD4CB" points="800.134113 843.333312 807.67678 835.791979 800.134113 828.249313 792.591447 835.791979"></polygon>
            <polygon id="path688" fill="#DBD4CB" points="811.320246 832.147179 818.86158 824.604513 811.320246 817.06318 803.778913 824.604513"></polygon>
            <polygon id="path692" fill="#DBD4CB" points="822.507846 820.960913 830.049179 813.418246 822.507846 805.87558 814.96518 813.418246"></polygon>
            <polygon id="path696" fill="#DBD4CB" points="833.693979 809.773446 841.236646 802.232113 833.693979 794.689447 826.151313 802.232113"></polygon>
            <polygon id="path700" fill="#DBD4CB" points="844.880246 798.58718 852.421579 791.044514 844.880246 783.50318 837.338912 791.044514"></polygon>
            <polygon id="path704" fill="#DBD4CB" points="856.067712 787.401047 863.609045 779.858381 856.067712 772.315714 848.525045 779.858381"></polygon>
            <polygon id="path708" fill="#DBD4CB" points="867.253845 776.213581 874.796511 768.672247 867.253845 761.129581 859.711178 768.672247"></polygon>
            <polygon id="path712" fill="#DBD4CB" points="878.440111 765.027314 885.982778 757.484648 878.440111 749.943315 870.898778 757.484648"></polygon>
            <polygon id="path716" fill="#DBD4CB" points="889.627578 753.841181 897.168911 746.298515 889.627578 738.755848 882.084911 746.298515"></polygon>
            <polygon id="path720" fill="#DBD4CB" points="352.669324 1290.79943 360.210658 1283.25677 352.669324 1275.7141 345.126658 1283.25677"></polygon>
            <polygon id="path724" fill="#DBD4CB" points="341.481725 1301.9857 349.024391 1294.44303 341.481725 1286.9017 333.940392 1294.44303"></polygon>
            <polygon id="path728" fill="#DBD4CB" points="330.295592 1313.17183 337.838258 1305.6305 330.295592 1298.08783 322.752925 1305.6305"></polygon>
            <polygon id="path732" fill="#DBD4CB" points="645.554651 1626.77209 638.011984 1634.31476 645.554651 1641.85743 653.095984 1634.31476"></polygon>
            <polygon id="path736" fill="#DBD4CB" points="634.367184 1615.29289 626.825851 1622.83423 634.367184 1630.37689 641.909851 1622.83423"></polygon>
            <polygon id="path740" fill="#DBD4CB" points="660.351583 1656.36583 667.89425 1663.90849 675.436916 1656.36583 667.89425 1648.82449"></polygon>
            <polygon id="path744" fill="#DBD4CB" points="649.165317 1645.17969 656.707984 1652.72236 664.249317 1645.17969 656.707984 1637.63703"></polygon>
            <polygon id="path748" fill="#DBD4CB" points="626.791718 1622.80596 634.334384 1630.34863 641.877051 1622.80596 634.334384 1615.26463"></polygon>
            <polygon id="path752" fill="#DBD4CB" points="615.605451 1611.61969 623.148118 1619.16236 630.689451 1611.61969 623.148118 1604.07703"></polygon>
            <polygon id="path756" fill="#DBD4CB" points="604.419318 1600.43356 611.960651 1607.97489 619.503318 1600.43356 611.960651 1592.89089"></polygon>
            <polygon id="path760" fill="#DBD4CB" points="593.231718 1589.24609 600.774385 1596.78876 608.317051 1589.24609 600.774385 1581.70476"></polygon>
            <polygon id="path764" fill="#DBD4CB" points="582.045585 1578.05983 589.588252 1585.60249 597.129585 1578.05983 589.588252 1570.51716"></polygon>
            <polygon id="path768" fill="#DBD4CB" points="570.859319 1566.87369 578.400652 1574.41503 585.943319 1566.87369 578.400652 1559.33103"></polygon>
            <polygon id="path772" fill="#DBD4CB" points="559.671853 1555.68609 567.214519 1563.22876 574.757186 1555.68609 567.214519 1548.14476"></polygon>
            <polygon id="path776" fill="#DBD4CB" points="548.48572 1544.49996 556.028386 1552.04263 563.569719 1544.49996 556.028386 1536.95729"></polygon>
            <polygon id="path780" fill="#DBD4CB" points="537.299453 1533.31383 544.840786 1540.85516 552.383453 1533.31383 544.840786 1525.77116"></polygon>
            <polygon id="path784" fill="#DBD4CB" points="526.111987 1522.12623 533.654653 1529.6689 541.19732 1522.12623 533.654653 1514.5849"></polygon>
            <polygon id="path788" fill="#DBD4CB" points="514.92572 1510.9401 522.468387 1518.48276 530.00972 1510.9401 522.468387 1503.39743"></polygon>
            <polygon id="path792" fill="#DBD4CB" points="503.739587 1499.75383 511.280921 1507.29516 518.823587 1499.75383 511.280921 1492.21116"></polygon>
            <polygon id="path796" fill="#DBD4CB" points="492.552121 1488.56636 500.094787 1496.10903 507.637454 1488.56636 500.094787 1481.02503"></polygon>
            <polygon id="path800" fill="#DBD4CB" points="481.365855 1477.38023 488.908521 1484.9229 496.449854 1477.38023 488.908521 1469.83756"></polygon>
            <polygon id="path804" fill="#DBD4CB" points="470.179722 1466.19396 477.721055 1473.7353 485.263721 1466.19396 477.721055 1458.6513"></polygon>
            <polygon id="path808" fill="#DBD4CB" points="458.992122 1455.0065 466.534788 1462.54916 474.077455 1455.0065 466.534788 1447.46516"></polygon>
            <polygon id="path812" fill="#DBD4CB" points="447.805989 1443.82023 455.348655 1451.3629 462.889988 1443.82023 455.348655 1436.27756"></polygon>
            <polygon id="path816" fill="#DBD4CB" points="324.752659 1320.7669 332.295325 1328.30957 339.837991 1320.7669 332.295325 1313.22557"></polygon>
            <polygon id="path820" fill="#DBD4CB" points="335.940125 1331.95437 343.481458 1339.4957 351.024125 1331.95437 343.481458 1324.4117"></polygon>
            <polygon id="path824" fill="#DBD4CB" points="347.126258 1343.14063 354.668924 1350.6833 362.210258 1343.14063 354.668924 1335.59797"></polygon>
            <polygon id="path828" fill="#DBD4CB" points="358.312524 1354.32677 365.855191 1361.86943 373.397857 1354.32677 365.855191 1346.78543"></polygon>
            <polygon id="path832" fill="#DBD4CB" points="369.499991 1365.51423 377.041324 1373.05557 384.58399 1365.51423 377.041324 1357.97157"></polygon>
            <polygon id="path836" fill="#DBD4CB" points="380.686124 1376.7005 388.22879 1384.24317 395.770123 1376.7005 388.22879 1369.15783"></polygon>
            <polygon id="path840" fill="#DBD4CB" points="391.87239 1387.88663 399.415057 1395.4293 406.957723 1387.88663 399.415057 1380.3453"></polygon>
            <polygon id="path844" fill="#DBD4CB" points="403.059857 1399.07423 410.60119 1406.61556 418.143856 1399.07423 410.60119 1391.53157"></polygon>
            <polygon id="path848" fill="#DBD4CB" points="414.246123 1410.26036 421.788789 1417.80303 429.330123 1410.26036 421.788789 1402.7177"></polygon>
            <polygon id="path852" fill="#DBD4CB" points="425.432256 1421.44663 432.974922 1428.9893 440.517589 1421.44663 432.974922 1413.9053"></polygon>
            <polygon id="path856" fill="#DBD4CB" points="436.619722 1432.6341 444.161056 1440.17543 451.703722 1432.6341 444.161056 1425.09143"></polygon>
            <polygon id="path860" fill="#DBD4CB" points="2273.83714 2786.55846 2281.37981 2794.10113 2288.92248 2786.55846 2281.37981 2779.0158"></polygon>
            <polygon id="path864" fill="#DBD4CB" points="2262.65101 2775.37233 2270.19368 2782.91366 2277.73501 2775.37233 2270.19368 2767.82966"></polygon>
            <polygon id="path868" fill="#DBD4CB" points="1915.86582 2428.58594 1923.40849 2436.12861 1930.94982 2428.58594 1923.40849 2421.04461"></polygon>
            <polygon id="path872" fill="#DBD4CB" points="1904.67969 2417.39967 1912.22102 2424.94234 1919.76369 2417.39967 1912.22102 2409.85701"></polygon>
            <polygon id="path876" fill="#DBD4CB" points="1893.49209 2406.21354 1901.03475 2413.75487 1908.57742 2406.21354 1901.03475 2398.67087"></polygon>
            <polygon id="path880" fill="#DBD4CB" points="1882.30595 2395.02594 1889.84862 2402.56861 1897.38995 2395.02594 1889.84862 2387.48461"></polygon>
            <polygon id="path884" fill="#DBD4CB" points="1871.11969 2383.83981 1878.66102 2391.38247 1886.20369 2383.83981 1878.66102 2376.29714"></polygon>
            <polygon id="path888" fill="#DBD4CB" points="1859.93222 2372.65354 1867.47489 2380.19487 1875.01755 2372.65354 1867.47489 2365.11087"></polygon>
            <polygon id="path892" fill="#DBD4CB" points="1848.74609 2361.46607 1856.28875 2369.00874 1863.83009 2361.46607 1856.28875 2353.92474"></polygon>
            <polygon id="path896" fill="#DBD4CB" points="1837.55982 2350.27994 1845.10115 2357.82261 1852.64382 2350.27994 1845.10115 2342.73727"></polygon>
            <polygon id="path900" fill="#DBD4CB" points="1826.37235 2339.09367 1833.91502 2346.63501 1841.45769 2339.09367 1833.91502 2331.55101"></polygon>
            <polygon id="path904" fill="#DBD4CB" points="1815.18609 2327.90621 1822.72875 2335.44887 1830.27009 2327.90621 1822.72875 2320.36488"></polygon>
            <polygon id="path908" fill="#DBD4CB" points="1803.99995 2316.71994 1811.54129 2324.26261 1819.08395 2316.71994 1811.54129 2309.17728"></polygon>
            <polygon id="path912" fill="#DBD4CB" points="1792.81249 2305.53381 1800.35515 2313.07514 1807.89782 2305.53381 1800.35515 2297.99114"></polygon>
            <polygon id="path916" fill="#DBD4CB" points="1781.62622 2294.34634 1789.16889 2301.88901 1796.71022 2294.34634 1789.16889 2286.80501"></polygon>
            <polygon id="path920" fill="#DBD4CB" points="1770.44009 2283.16008 1777.98142 2290.70274 1785.52409 2283.16008 1777.98142 2275.61741"></polygon>
            <polygon id="path924" fill="#DBD4CB" points="1759.25262 2271.97394 1766.79529 2279.51528 1774.33796 2271.97394 1766.79529 2264.43128"></polygon>
            <polygon id="path928" fill="#DBD4CB" points="1748.06636 2260.78634 1755.60902 2268.32901 1763.15036 2260.78634 1755.60902 2253.24501"></polygon>
            <polygon id="path932" fill="#DBD4CB" points="1736.88022 2249.60021 1744.42156 2257.14288 1751.96422 2249.60021 1744.42156 2242.05754"></polygon>
            <polygon id="path936" fill="#DBD4CB" points="1725.69262 2238.41394 1733.23529 2245.95528 1740.77796 2238.41394 1733.23529 2230.87128"></polygon>
            <polygon id="path940" fill="#DBD4CB" points="1714.50649 2227.22648 1722.04916 2234.76914 1729.59049 2227.22648 1722.04916 2219.68514"></polygon>
            <polygon id="path944" fill="#DBD4CB" points="1703.32022 2216.04034 1710.86156 2223.58301 1718.40422 2216.04034 1710.86156 2208.49768"></polygon>
            <polygon id="path948" fill="#DBD4CB" points="1692.13276 2204.85408 1699.67542 2212.39541 1707.21809 2204.85408 1699.67542 2197.31141"></polygon>
            <polygon id="path952" fill="#DBD4CB" points="2251.46474 2764.18486 2259.00608 2771.72753 2266.54874 2764.18486 2259.00608 2756.64353"></polygon>
            <polygon id="path956" fill="#DBD4CB" points="2240.27728 2752.9986 2247.81994 2760.54126 2255.36261 2752.9986 2247.81994 2745.45593"></polygon>
            <polygon id="path960" fill="#DBD4CB" points="2229.09114 2741.81246 2236.63381 2749.3538 2244.17514 2741.81246 2236.63381 2734.2698"></polygon>
            <polygon id="path964" fill="#DBD4CB" points="1927.05209 2439.77341 1934.59342 2447.31474 1942.13742 2439.77341 1934.59342 2432.23074"></polygon>
            <polygon id="path968" fill="#DBD4CB" points="1938.23955 2450.95954 1945.78088 2458.50221 1953.32355 2450.95954 1945.78088 2443.41687"></polygon>
            <polygon id="path972" fill="#DBD4CB" points="1949.42568 2462.14581 1956.96835 2469.68847 1964.50968 2462.14581 1956.96835 2454.60447"></polygon>
            <polygon id="path976" fill="#DBD4CB" points="1960.61195 2473.33327 1968.15328 2480.8746 1975.69728 2473.33327 1968.15328 2465.79061"></polygon>
            <polygon id="path980" fill="#DBD4CB" points="1971.79942 2484.5194 1979.34075 2492.06207 1986.88342 2484.5194 1979.34075 2476.97674"></polygon>
            <polygon id="path984" fill="#DBD4CB" points="1982.98568 2495.70567 1990.52835 2503.24834 1998.06968 2495.70567 1990.52835 2488.16434"></polygon>
            <polygon id="path988" fill="#DBD4CB" points="1994.17182 2506.89314 2001.71315 2514.43447 2009.25715 2506.89314 2001.71315 2499.35047"></polygon>
            <polygon id="path992" fill="#DBD4CB" points="2005.35928 2518.0794 2012.90062 2525.62207 2020.44328 2518.0794 2012.90062 2510.53674"></polygon>
            <polygon id="path996" fill="#DBD4CB" points="2016.54555 2529.26554 2024.08822 2536.8082 2031.62955 2529.26554 2024.08822 2521.7242"></polygon>
            <polygon id="path1000" fill="#DBD4CB" points="2027.73168 2540.453 2035.27302 2547.99434 2042.81702 2540.453 2035.27302 2532.91034"></polygon>
            <polygon id="path1004" fill="#DBD4CB" points="2038.91928 2551.63927 2046.46062 2559.18194 2054.00328 2551.63927 2046.46062 2544.0966"></polygon>
            <polygon id="path1008" fill="#DBD4CB" points="2050.10542 2562.8254 2057.64675 2570.36807 2065.18942 2562.8254 2057.64675 2555.28407"></polygon>
            <polygon id="path1012" fill="#DBD4CB" points="2061.29168 2574.013 2068.83435 2581.55434 2076.37568 2574.013 2068.83435 2566.47034"></polygon>
            <polygon id="path1016" fill="#DBD4CB" points="2072.47781 2585.19914 2080.02048 2592.7418 2087.56315 2585.19914 2080.02048 2577.65647"></polygon>
            <polygon id="path1020" fill="#DBD4CB" points="2083.66528 2596.3854 2091.20661 2603.92807 2098.74928 2596.3854 2091.20661 2588.84407"></polygon>
            <polygon id="path1024" fill="#DBD4CB" points="2094.85155 2607.57287 2102.39421 2615.1142 2109.93555 2607.57287 2102.39421 2600.0302"></polygon>
            <polygon id="path1028" fill="#DBD4CB" points="2106.03768 2618.759 2113.58035 2626.30167 2121.12301 2618.759 2113.58035 2611.21633"></polygon>
            <polygon id="path1032" fill="#DBD4CB" points="2117.22515 2629.94527 2124.76648 2637.48793 2132.30915 2629.94527 2124.76648 2622.40393"></polygon>
            <polygon id="path1036" fill="#DBD4CB" points="2128.41141 2641.13273 2135.95408 2648.67407 2143.49541 2641.13273 2135.95408 2633.59007"></polygon>
            <polygon id="path1040" fill="#DBD4CB" points="2139.59755 2652.319 2147.14021 2659.86167 2154.68288 2652.319 2147.14021 2644.77633"></polygon>
            <polygon id="path1044" fill="#DBD4CB" points="2150.78515 2663.50513 2158.32648 2671.0478 2165.86915 2663.50513 2158.32648 2655.9638"></polygon>
            <polygon id="path1048" fill="#DBD4CB" points="2161.97128 2674.6926 2169.51395 2682.23393 2177.05528 2674.6926 2169.51395 2667.14993"></polygon>
            <polygon id="path1052" fill="#DBD4CB" points="2173.15755 2685.87887 2180.70021 2693.42153 2188.24288 2685.87887 2180.70021 2678.3362"></polygon>
            <polygon id="path1056" fill="#DBD4CB" points="2184.34501 2697.065 2191.88635 2704.60767 2199.42901 2697.065 2191.88635 2689.52367"></polygon>
            <polygon id="path1060" fill="#DBD4CB" points="2195.53115 2708.2526 2203.07381 2715.79393 2210.61514 2708.2526 2203.07381 2700.70993"></polygon>
            <polygon id="path1064" fill="#DBD4CB" points="2206.71741 2719.43873 2214.26008 2726.9814 2221.80274 2719.43873 2214.26008 2711.89607"></polygon>
            <polygon id="path1068" fill="#DBD4CB" points="2217.90488 2730.625 2225.44621 2738.16766 2232.98888 2730.625 2225.44621 2723.08367"></polygon>
            <polygon id="path1070" stroke="#D3CFC3" stroke-width="1.3333333" fill="#DBD4CB" points="1469.03996 175.711996 1482.11463 175.711996 1482.11463 0.066666665 1469.03996 0.066666665"></polygon>
            <polygon id="path228" fill="#D3CFC3" points="671.53905 1667.55329 679.080383 1675.09462 686.623049 1667.55329 679.080383 1660.01063"></polygon>
        </g>
        <g id="Capital-Beltway" transform="translate(1765.166653, 1546.000013) scale(1, -1) translate(-1765.166653, -1546.000013) translate(560.666653, 399.000013)" fill="#BFC8BD">
            <path d="M801.12758,2271.00261 C788.68758,2271.00261 776.772914,2266.26528 767.976914,2257.81994 L524.966254,2017.96395 L508.736921,2034.19328 L751.400915,2273.73328 C764.596914,2286.40128 782.46758,2293.50928 801.12758,2293.50928 L1201.6169,2293.50928 L1201.6169,2271.00261 L801.12758,2271.00261 Z" id="border-T"></path>
            <path d="M488.071588,1981.60928 C409.570256,1904.14795 347.080925,1842.51195 347.094258,1842.51195 L328.428925,1824.61329 C315.231592,1811.94662 297.392926,1804.80929 278.731593,1804.80929 L70.7729315,1804.80929 C58.3329319,1804.80929 46.4195988,1800.07329 37.6222657,1791.62796 C28.8249326,1783.18262 23.890266,1774.41196 23.890266,1762.46796 L23.890266,1335.88397 L0.447599964,1359.23463 L0.447599964,1759.80129 C0.447599964,1777.71596 7.85026645,1794.87196 21.0462661,1807.53995 C34.2422658,1820.20795 52.1115987,1827.31462 70.7729315,1827.31462 L278.731593,1827.31462 C291.171593,1827.31462 303.034259,1832.10262 311.830259,1840.54795 C311.830259,1840.54795 330.379592,1858.34795 330.460925,1858.34795 L471.843588,1997.83728 L488.071588,1981.60928 Z" id="border-TL"></path>
            <path d="M2385.41274,1161.49344 L2408.85541,1161.56544 L2385.41274,1161.49344 Z M2385.41274,1166.2321 L2385.41274,1584.73076 C2385.41274,1596.67343 2380.47807,1608.11076 2371.68074,1616.55609 L1724.88209,2257.86008 C1716.08476,2266.30541 1704.13142,2271.00274 1691.68876,2271.00274 L1258.95144,2271.09341 L1258.95144,2293.59874 L1691.68876,2293.50941 C1710.35009,2293.50941 1728.28209,2286.46274 1741.48076,2273.79341 L2388.22741,1632.44009 C2401.42341,1619.77209 2408.85541,1602.64543 2408.85541,1584.73076 L2408.85541,1166.2321 L2385.41274,1166.2321 Z" id="border-TR"></path>
            <polygon id="border-gap-fill" points="23.890666 1262.55984 23.890666 1246.88517 0.447999964 1246.88517 0.447999964 1285.91583"></polygon>
            <path d="M23.890666,1194.88544 L23.890666,454.232122 C23.890666,442.289456 28.7839993,430.812123 37.5813324,422.366789 L423.645323,36.6401324 C432.442656,28.1947993 444.398656,23.4094661 456.838655,23.4094661 L492.635988,23.4094661 L492.635988,0.904133286 L456.838655,0.904133286 C438.178656,0.904133286 420.338656,8.03879977 407.142656,20.7081328 L20.9826661,406.432123 C7.78799978,419.098789 0.447999964,436.317456 0.447999964,454.232122 L0.447999964,1194.88544 L23.890666,1194.88544 Z" id="border-BL"></path>
            <path d="M543.947985,23.4093327 L1080.28131,23.4093327 L1080.28131,0.903999952 L543.947985,0.903999952 L543.947985,23.4093327 Z M1132.25997,23.4093327 L1687.63462,23.4093327 C1700.07462,23.4093327 1712.02929,28.1946659 1720.82662,36.6399991 L2371.68127,689.786649 C2380.47727,698.231983 2385.41327,709.669316 2385.41327,721.614649 L2385.41327,1066.93731 L2408.85594,1066.93731 L2408.85594,721.614649 C2408.85594,703.697316 2401.42261,686.570649 2388.22794,673.903983 L1737.32929,20.7079995 C1724.13462,8.03866644 1706.29596,0.903999952 1687.63462,0.903999952 L1132.25997,0.903999952 L1132.25997,23.4093327 Z" id="border-BR"></path>
        </g>
        
        <g id="Blue-Line" transform="translate(2083.499974, 2054.833344) scale(1, -1) translate(-2083.499974, -2054.833344) translate(1052.999974, 1270.333344)">
            <path d="M637.901051,1430.28517 L637.901051,1425.20117 L637.901051,1274.66917 C637.901051,1211.89317 688.811716,1161.00251 751.589048,1161.00251 L819.96638,1161.00251 L819.963713,1118.33584 L751.589048,1118.33584 C665.247717,1118.33584 595.234385,1188.32784 595.234385,1274.66917 L595.234385,1425.20117 L595.234385,1430.28517 L637.901051,1430.28517 Z M919.317044,1161.00384 L1135.09571,1161.00384 C1164.2997,1160.92384 1193.5277,1172.02517 1215.80637,1194.30384 L1263.42637,1242.53717 C1275.55037,1254.6625 1291.4717,1260.6865 1307.36637,1260.6065 L2003.89168,1260.6065 L2003.89168,1217.93717 L1307.36637,1217.93717 C1302.3917,1218.01984 1297.38903,1216.16117 1293.5957,1212.36784 L1245.97704,1164.13451 C1215.3677,1133.52384 1175.21837,1118.25717 1135.09571,1118.33717 L919.317044,1118.33584 L919.317044,1161.00384 Z M4.94786664,57.1914666 L4.94786664,196.000796 C4.94786664,256.200795 53.7478654,305.022127 113.947864,305.022127 L526.259854,305.022127 C536.753187,305.022127 545.259853,313.550127 545.259853,324.04346 L545.259853,544.660788 C545.259853,555.154121 536.733187,563.660787 526.239854,563.660787 L482.158521,563.660787 C421.96119,563.660787 373.138524,612.460786 373.138524,672.660785 L373.139857,904.230112 C373.218524,921.320778 366.739858,938.435445 353.702525,951.470111 L156.601196,1147.97011 C135.23453,1169.33677 124.587864,1197.37277 124.669197,1225.38077 L124.47453,1506.55676 C124.47453,1540.61543 152.083863,1568.24476 186.141195,1568.24476 L491.530521,1568.24476 L491.531854,1525.5781 L186.141195,1525.5781 C175.647862,1525.5781 167.141196,1517.05143 167.141196,1506.55676 L167.335863,1225.38077 C167.254529,1208.29144 173.735862,1191.17544 186.770529,1178.14077 L383.873191,981.640777 C405.24119,960.274111 415.88519,932.239445 415.806523,904.230112 L415.80519,672.660785 C415.80519,636.026119 445.525189,606.327453 482.158521,606.327453 L526.239854,606.327453 C560.297186,606.327453 587.926519,578.719454 587.926519,544.660788 L587.926519,324.04346 C587.926519,289.984794 560.317186,262.355462 526.259854,262.355462 L113.947864,262.355462 C77.3118648,262.355462 47.6145322,232.636796 47.6145322,196.000796 L47.6145322,57.1914666 L4.94786664,57.1914666 Z M543.531187,1568.24476 L576.213852,1568.24476 C610.271185,1568.24476 637.900517,1540.63676 637.900517,1506.5781 L637.900517,1482.28476 L595.233852,1482.28476 L595.233852,1506.5781 C595.233852,1517.07143 586.707185,1525.5781 576.213852,1525.5781 L543.531187,1525.5781 L543.531187,1568.24476 Z" id="BL-Line" fill="#006CA9"></path>
            <g id="BL-Indicator" transform="translate(-0.000000, 0.000000)">
                <circle id="Oval-1" fill="#006CA9" cx="26" cy="26" r="26"></circle>
                <text id="BL" transform="translate(27.500000, 26.500000) scale(1, -1) translate(-27.500000, -26.500000) " font-family="HelveticaNeue-Bold, Helvetica Neue" font-size="29" font-weight="bold" letter-spacing="0.305263221" fill="#FFFFFF">
                    <tspan x="8" y="37">BL</tspan>
                </text>
            </g>
            <g id="BL-Indicator" transform="translate(2009.000026, 1207.333344)">
                <circle id="Oval-1" fill="#006CA9" cx="26" cy="26" r="26"></circle>
                <text id="BL" transform="translate(27.500000, 26.500000) scale(1, -1) translate(-27.500000, -26.500000) " font-family="HelveticaNeue-Bold, Helvetica Neue" font-size="29" font-weight="bold" letter-spacing="0.3052632" fill="#FFFFFF">
                    <tspan x="8" y="37">BL</tspan>
                </text>
            </g>
        </g>
        <g id="Silver-Line" transform="translate(1570.833332, 1254.833371) scale(1, -1) translate(-1570.833332, -1254.833371) translate(27.333332, 835.333371)">
            <path d="M1036.47411,133.749463 C1096.67411,133.749463 1145.47411,182.570795 1145.47411,242.770794 L1145.47411,242.770794 L1145.47411,341.557458 C1145.47411,378.192124 1175.17277,407.91079 1211.80744,407.91079 L1211.80744,407.91079 L1517.19676,407.91079 L1517.19543,450.577455 L1211.80744,450.577455 C1151.60877,450.577455 1102.80744,401.757457 1102.80744,341.557458 L1102.80744,341.557458 L1102.80744,242.770794 C1102.80744,206.134795 1073.10877,176.416129 1036.47411,176.416129 L1036.47411,176.416129 L696.856783,176.604129 C692.908783,177.160129 689.104784,178.956129 686.070117,181.989462 L686.070117,181.989462 L365.544792,502.514787 L335.384792,472.333455 L655.900784,151.818796 C668.024784,139.694796 683.944784,133.670797 699.83945,133.750797 L699.83945,133.750797 Z M1710.90049,317.284792 L1710.90049,341.578125 C1710.90049,401.176123 1663.0507,449.600982 1603.683,450.563519 L1601.88049,450.578122 L1569.19783,450.578122 L1569.19783,407.911456 L1601.88049,407.911456 C1638.14881,407.911456 1667.63876,378.805101 1668.22493,342.6751 L1668.23383,341.578125 L1668.23383,317.284792 L1710.90049,317.284792 Z M1845.63302,0.669199958 L1845.63435,43.3371989 L1777.25569,43.3358656 C1740.98605,43.3358656 1711.49609,72.443528 1710.90992,108.572261 L1710.90102,109.669197 L1710.90102,265.285193 L1668.23436,265.285193 L1668.23436,109.669197 C1668.23436,50.0725187 1716.08284,1.64636633 1775.4531,0.683802954 L1777.25569,0.669199958 L1845.63302,0.669199958 Z M1944.98249,0.670266625 L2161.60272,0.671123425 C2189.05325,0.804207934 2216.46634,11.237443 2237.53531,31.9708286 L2238.17181,32.6022658 L2285.79314,80.8382646 C2298.66413,93.7092516 2315.51118,100.189163 2332.38289,100.272865 L2333.03181,100.272931 L3029.55846,100.347597 L3029.55846,143.014263 L2333.03181,142.939596 C2305.30521,143.020116 2277.54986,132.587431 2256.26547,111.64542 L2255.62248,111.007597 L2208.00248,62.7729317 C2195.13149,49.9019447 2178.28444,43.4233331 2161.41145,43.3370969 L1944.98249,43.3369322 L1944.98249,0.670266625 L2161.60272,0.671123425 Z" id="SV-Line" fill="#989B95"></path>
            <path d="M64.4983992,803.558113 L63.5370659,804.519447 L62.5757325,803.558113 L64.4983992,803.558113 Z M72.5974656,795.459847 L68.4974657,799.558513 L58.5761326,799.558513 L54.4761327,795.459847 L72.5974656,795.459847 Z M80.5971988,787.45958 L76.5971989,791.45958 L50.4758662,791.45958 L46.4758663,787.45958 L80.5971988,787.45958 Z M88.5971986,779.45958 L84.5971987,783.45958 L42.4758664,783.45958 L38.4758665,779.45958 L88.5971986,779.45958 Z M36.2583999,771.458381 L96.597065,771.459714 L92.5970651,775.459714 L34.4757332,775.459714 L33.3663999,774.350381 L36.2583999,771.458381 Z M104.597065,763.458381 L100.597065,767.458381 L40.2583998,767.458381 L44.2583997,763.458381 L104.597065,763.458381 Z M112.597065,755.458381 L108.597065,759.458381 L48.2583996,759.458381 L52.2583995,755.458381 L112.597065,755.458381 Z M120.598398,747.458381 L116.597065,751.458381 L56.2583994,751.458381 L60.2583993,747.458381 L120.598398,747.458381 Z M128.598398,739.458381 L124.598398,743.458381 L64.2583992,743.458381 L68.2583991,739.458381 L128.598398,739.458381 Z M76.3574655,731.358115 L136.698797,731.359448 L132.598797,735.458115 L72.258799,735.458115 L76.3574655,731.358115 Z M144.698797,723.359315 L140.698797,727.359315 L80.3574654,727.357982 L84.3574653,723.359315 L144.698797,723.359315 Z M92.3586651,715.358115 L152.698664,715.359449 L148.698664,719.359449 L88.3573319,719.358115 L92.3586651,715.358115 Z M100.358665,707.358116 L160.698663,707.359449 L156.698664,711.359449 L96.358665,711.359449 L100.358665,707.358116 Z M168.698663,699.358116 L164.698663,703.358116 L104.358665,703.358116 L108.358665,699.358116 L168.698663,699.358116 Z M176.698663,691.358116 L172.698663,695.358116 L112.358665,695.358116 L116.358665,691.358116 L176.698663,691.358116 Z M184.698663,683.358116 L180.698663,687.358116 L120.358664,687.358116 L124.358664,683.358116 L184.698663,683.358116 Z M192.698663,675.358116 L188.698663,679.358116 L128.358664,679.358116 L132.358664,675.358116 L192.698663,675.358116 Z M140.458931,667.25785 L200.797596,667.259183 L196.698929,671.35785 L136.358931,671.35785 L140.458931,667.25785 Z M208.797596,659.25905 L204.797596,663.25905 L144.45893,663.257717 L148.45893,659.25905 L208.797596,659.25905 Z M156.45893,651.25785 L216.797595,651.259184 L212.797595,655.259184 L152.45893,655.25785 L156.45893,651.25785 Z M164.45893,643.257851 L224.797595,643.259184 L220.797595,647.259184 L160.45893,647.259184 L164.45893,643.257851 Z M232.797595,635.257851 L228.797595,639.257851 L168.45893,639.257851 L172.45893,635.257851 L232.797595,635.257851 Z M240.797595,627.257851 L236.797595,631.257851 L176.45893,631.257851 L180.45893,627.257851 L240.797595,627.257851 Z M248.798928,619.257851 L244.798928,623.257851 L184.458929,623.257851 L188.458929,619.257851 L248.798928,619.257851 Z M256.798928,611.257851 L252.798928,615.257851 L192.458929,615.257851 L196.458929,611.257851 L256.798928,611.257851 Z M204.557996,603.157585 L264.899327,603.158918 L260.799328,607.257585 L200.459329,607.257585 L204.557996,603.157585 Z M212.557995,595.157585 L272.899327,595.158918 L268.899327,599.158918 L208.557996,599.157585 L212.557995,595.157585 Z M220.559195,587.157585 L280.899194,587.158919 L276.899194,591.158919 L216.557862,591.157585 L220.559195,587.157585 Z M228.559195,579.157585 L288.899194,579.158919 L284.899194,583.158919 L224.559195,583.157585 L228.559195,579.157585 Z M296.899193,571.157586 L292.899193,575.157586 L232.559195,575.157586 L236.559195,571.157586 L296.899193,571.157586 Z M304.899193,563.157586 L300.899193,567.157586 L240.559195,567.157586 L244.559195,563.157586 L304.899193,563.157586 Z M312.899193,555.157586 L308.899193,559.157586 L248.559195,559.157586 L252.559194,555.157586 L312.899193,555.157586 Z M320.899193,547.157586 L316.899193,551.157586 L256.559194,551.157586 L260.559194,547.157586 L320.899193,547.157586 Z M268.659461,539.05732 L328.998126,539.058653 L324.899459,543.15732 L264.559461,543.15732 L268.659461,539.05732 Z M336.998126,531.05852 L332.998126,535.05852 L272.659461,535.057187 L276.659461,531.05852 L336.998126,531.05852 Z M284.65946,523.05732 L344.998125,523.058654 L340.998126,527.058653 L280.65946,527.05732 L284.65946,523.05732 Z M292.65946,515.05732 L352.998125,515.058654 L348.998125,519.058654 L288.65946,519.058654 L292.65946,515.05732 Z M360.998125,507.057321 L356.998125,511.057321 L296.65946,511.057321 L300.65946,507.057321 L360.998125,507.057321 Z M359.716658,499.219987 L363.555325,503.057321 L304.659326,503.057321 L308.497993,499.219987 L359.716658,499.219987 Z M351.716659,491.219988 L355.716659,495.219988 L312.497993,495.219988 L316.497993,491.219988 L351.716659,491.219988 Z M343.716659,483.218655 L347.716659,487.219988 L320.497993,487.219988 L324.497993,483.219988 L343.716659,483.218655 Z M335.716659,475.219988 L339.716659,479.219988 L328.497993,479.219988 L332.497992,475.219988 L335.716659,475.219988 Z" id="Jaggedy-Jank" fill="#989B95"></path>
            <g id="SV-Indicator" transform="translate(3034.666668, 100.333371)">
                <circle id="Oval-1" fill="#989B95" cx="26" cy="26" r="26"></circle>
                <text id="SV" transform="translate(27.000000, 26.000000) scale(1, -1) translate(-27.000000, -26.000000) " font-family="HelveticaNeue-Bold, Helvetica Neue" font-size="29" font-weight="bold" letter-spacing="0.3052632" fill="#231F20">
                    <tspan x="8" y="36.5">SV</tspan>
                </text>
            </g>
            <g id="SV-Indicator" transform="translate(0.666668, 786.333371)">
                <circle id="Oval-1" fill="#989B95" cx="26" cy="26" r="26"></circle>
                <text id="SV" transform="translate(27.000000, 26.000000) scale(1, -1) translate(-27.000000, -26.000000) " font-family="HelveticaNeue-Bold, Helvetica Neue" font-size="29" font-weight="bold" letter-spacing="0.3052632" fill="#231F20">
                    <tspan x="8" y="36.5">SV</tspan>
                </text>
            </g>
        </g>
        <g id="Yellow-Line" transform="translate(1920.976490, 1648.548179) scale(1, -1) translate(-1920.976490, -1648.548179) translate(1472.976490, 457.048179)">
            <path d="M564.288292,2013.61143 L865.869334,2315.19247 L835.463742,2345.59806 L533.8827,2044.01702 L564.288292,2013.61143 Z M447.333328,1483 L447.339995,1696.01599 C447.339995,1729.73275 420.260486,1757.12983 386.671806,1757.6744 L385.651997,1757.68266 L355.571997,1757.68266 C319.303678,1757.68266 289.812424,1786.78902 289.226225,1822.91902 L289.217332,1824.01599 L289.217332,1869.31466 C289.217332,1905.5843 318.324995,1935.07426 354.453728,1935.66043 L355.550664,1935.66932 L460.849659,1935.66942 C476.310551,1935.75208 491.750248,1941.61099 503.644857,1953.2437 L504.145327,1953.73865 L526.379993,1975.97199 L496.221327,2006.15465 L473.974661,1983.90932 C470.291004,1980.22307 465.464873,1978.36504 460.631768,1978.33643 L460.205328,1978.33865 L355.550664,1978.33599 C295.953985,1978.33599 247.527833,1930.4862 246.56527,1871.11721 L246.550667,1869.31466 L246.550667,1824.01599 C246.550667,1764.41667 294.400454,1715.99311 353.769448,1715.0306 L355.571997,1715.01599 L385.651997,1715.01599 C396.032498,1715.01599 404.489704,1706.69128 404.670379,1696.35379 L404.673329,1696.01599 L404.666663,1483 L447.333328,1483 Z M215.262534,58.0021845 L215.283867,545.892839 C215.283867,606.092837 166.463869,654.892836 106.262537,654.892836 L106.262537,654.892836 L62.1825379,654.892836 C51.6905382,654.892836 43.1612051,663.399503 43.1612051,673.892836 L43.1612051,673.892836 L43.1638717,816.247499 C43.0838717,833.335498 49.5638716,850.450165 62.5985379,863.486164 L62.5985379,863.486164 L167.590535,968.132828 C179.619868,980.272828 196.302535,987.794161 214.738534,987.794161 L214.738534,987.794161 L385.651863,987.794161 C419.710529,987.794161 447.318528,1015.42216 447.318528,1049.48083 L447.318528,1049.48083 L447.330528,1431.51815 L404.663863,1431.51815 L404.651863,1049.48083 C404.651863,1038.98749 396.14653,1030.46083 385.651863,1030.46083 L385.651863,1030.46083 L214.738534,1030.46083 C184.521202,1030.46083 157.169202,1018.16483 137.422536,998.303494 L137.422536,998.303494 L32.4292053,893.655497 C11.0625392,872.288831 0.41720614,844.254165 0.497206138,816.247499 L0.497206138,816.247499 L0.494539471,673.892836 C0.494539471,639.835503 28.1252054,612.226171 62.1825379,612.226171 L62.1825379,612.226171 L106.262537,612.226171 C142.898536,612.226171 172.617202,582.528838 172.617202,545.892839 L172.617202,545.892839 L172.618535,58.0021845 L215.262534,58.0021845 Z" id="YL-Line" fill="#FBCD20"></path>
            <g id="YL-Indicator" transform="translate(169.000000, 0.000000)">
                <circle id="Oval-1" fill="#FBCD20" cx="26" cy="26" r="26"></circle>
                <text id="YL" transform="translate(27.000000, 26.500000) scale(1, -1) translate(-27.000000, -26.500000) " font-family="HelveticaNeue-Bold, Helvetica Neue" font-size="29" font-weight="bold" letter-spacing="0.305263221" fill="#241F20">
                    <tspan x="8" y="37">YL</tspan>
                </text>
            </g>
            <g id="YL-Indicator" transform="translate(843.003490, 2330.998192)">
                <circle id="Oval-1" fill="#FBCD20" cx="26" cy="26" r="26"></circle>
                <text id="YL" transform="translate(27.000000, 26.500000) scale(1, -1) translate(-27.000000, -26.500000) " font-family="HelveticaNeue-Bold, Helvetica Neue" font-size="29" font-weight="bold" letter-spacing="0.305263221" fill="#241F20">
                    <tspan x="8" y="37">YL</tspan>
                </text>
            </g>
        </g>
        <g id="Orange-Line" transform="translate(304.333324, 1156.666706)">
            <path d="M58.7109333,195.624377 L300.572261,195.687043 L343.22826,153.032378 L58.7109333,152.957711 L58.7109333,195.624377 Z M374.057592,195.708377 L759.473582,195.82171 C769.968249,195.82171 778.473582,204.34971 778.473582,214.843043 L778.473582,313.629707 C778.473582,399.971038 848.46558,469.98437 934.806911,469.98437 L1240.1949,469.98437 L1240.1949,427.317704 L934.806911,427.317704 C872.030913,427.317704 821.140248,376.407039 821.140248,313.629707 L821.140248,214.843043 C821.140248,180.784377 793.532248,153.155044 759.473582,153.155044 L416.710924,153.053711 L374.057592,195.708377 Z M1438.5677,289.3841 L1438.5677,313.677432 C1438.5677,376.454764 1387.6557,427.344096 1324.8797,427.344096 L1292.19837,427.344096 L1292.19837,470.010762 L1324.8797,470.010762 C1411.22103,470.010762 1481.23436,400.018764 1481.23436,313.677432 L1481.23436,289.3841 L1438.5677,289.3841 Z M1568.6341,20.1027731 L1500.25543,20.1014398 C1466.19676,20.1014398 1438.56743,47.7107724 1438.56743,81.7681049 L1438.56743,232.300101 L1438.56743,237.384101 L1481.2341,237.384101 L1481.2341,232.300101 L1481.2341,81.7681049 C1481.2341,71.2747719 1489.7621,62.7681054 1500.25543,62.7681054 L1568.63543,62.7694387 L1568.6341,20.1027731 Z M2056.03248,119.358262 C2026.83115,119.439595 1997.60182,108.336929 1975.32315,86.0582627 L1927.70315,37.8249306 C1915.57782,25.6995975 1899.65782,19.6755977 1883.76315,19.7555977 L1667.98316,19.7555977 L1667.98316,62.4235966 L1883.76315,62.4249299 C1888.73782,62.3435966 1893.73915,64.2009299 1897.53382,67.9955965 L1945.15382,116.228929 C1975.76315,146.838261 2015.91115,162.106261 2056.03248,162.026261 L2233.37381,162.052927 C2250.46181,161.972927 2267.57648,168.452927 2280.61381,181.488927 L2555.2258,456.102253 L2585.39514,425.931588 L2310.78314,151.319594 C2289.41514,129.951595 2261.38181,119.306262 2233.37381,119.386262 L2056.03248,119.358262 Z" id="OR-Line" fill="#EB8B2D" transform="translate(1322.053035, 244.882787) scale(1, -1) translate(-1322.053035, -244.882787) "></path>
            <g id="OR-Indicator" transform="translate(0.666676, 289.333294)">
                <circle id="Oval-1" fill="#EB8B2D" cx="26.5" cy="26" r="26"></circle>
                <text id="OR" font-family="HelveticaNeue-Bold, Helvetica Neue" font-size="29" font-weight="bold" letter-spacing="-1" fill="#231F20">
                    <tspan x="5.5" y="35.5">OR</tspan>
                </text>
            </g>
            <g id="OR-Indicator" transform="translate(2565.666676, 0.333294)">
                <circle id="Oval-1" fill="#EB8B2D" cx="26.5" cy="26" r="26"></circle>
                <text id="OR" font-family="HelveticaNeue-Bold, Helvetica Neue" font-size="29" font-weight="bold" letter-spacing="-1" fill="#231F20">
                    <tspan x="5.5" y="35.5">OR</tspan>
                </text>
            </g>
        </g>
        <g id="Red-Line" transform="translate(1426.333317, 755.166712) scale(1, -1) translate(-1426.333317, -755.166712) translate(637.333317, 105.666712)">
            <path d="M1175.01037,1241.5937 L1175.01037,822.501713 C1174.93037,805.41238 1181.4117,788.297714 1194.44637,775.261714 L1545.34103,424.097723 C1566.70769,402.731057 1577.35436,374.696391 1577.27303,346.687058 L1577.27436,61.9723985 C1577.27436,27.915066 1549.66636,0.285733326 1515.6077,0.285733326 L973.53171,0.285733326 C939.474377,0.285733326 911.865045,27.915066 911.865045,61.9723985 L911.862378,264.205727 C911.942378,269.180393 910.086378,274.181726 906.291712,277.97506 L720.922383,463.449722 C717.46105,467.024388 712.60905,469.247055 707.24505,469.247055 L667.349051,469.247055 C650.203718,469.247055 634.685052,476.245721 623.502385,487.541721 L33.8490666,1077.19504 L64.0210659,1107.36571 L653.674384,517.712387 C657.134384,514.13772 661.983718,511.913721 667.349051,511.913721 L707.24505,511.913721 C724.393049,511.913721 739.910382,504.916387 751.093049,493.621721 L936.462377,308.145726 C948.586377,296.020393 954.610377,280.100393 954.53171,264.205727 L954.53171,61.9723985 C954.53171,51.4790654 963.038377,42.9523989 973.53171,42.9523989 L1515.6077,42.9523989 C1526.10103,42.9523989 1534.6077,51.4790654 1534.6077,61.9723985 L1534.60636,346.687058 C1534.6877,363.777724 1528.20636,380.89239 1515.1717,393.92839 L1164.27571,745.091048 C1142.90904,766.457714 1132.26237,794.493713 1132.34371,822.501713 L1132.34371,1241.5937 L1175.01037,1241.5937 Z" id="path1448" fill="#D02139"></path>
            <g id="RD-Indicator" transform="translate(1127.646664, 1246.616724)">
                <circle id="Oval-1" fill="#D02139" cx="26" cy="26" r="26"></circle>
                <text id="RD" transform="translate(27.000000, 26.000000) scale(1, -1) translate(-27.000000, -26.000000) " font-family="HelveticaNeue-Bold, Helvetica Neue" font-size="29" font-weight="bold" fill="#FFFFFF">
                    <tspan x="5.5" y="36.5">RD</tspan>
                </text>
            </g>
            <g id="RD-Indicator" transform="translate(0.646664, 1088.616724)">
                <circle id="Oval-1" fill="#D02139" cx="26" cy="26" r="26"></circle>
                <text id="RD" transform="translate(27.000000, 26.000000) scale(1, -1) translate(-27.000000, -26.000000) " font-family="HelveticaNeue-Bold, Helvetica Neue" font-size="29" font-weight="bold" fill="#FFFFFF">
                    <tspan x="5.5" y="36.5">RD</tspan>
                </text>
            </g>
        </g>
        <g id="Green-Line" transform="translate(2230.645823, 1382.557379) scale(1, -1) translate(-2230.645823, -1382.557379) translate(1766.145823, 496.557379)">
            <path d="M303.012843,1407.08805 L606.311502,1710.38671 L576.14217,1740.55738 L272.854177,1437.26939 L303.012843,1407.08805 Z M201.503995,910.509333 L201.503995,1123.52533 C201.503995,1183.12201 153.654207,1231.54816 94.2852133,1232.51072 L92.4826644,1232.52533 L62.4026651,1232.52533 C52.0221636,1232.52533 43.5649573,1240.84873 43.3842821,1251.18749 L43.3813322,1251.52532 L43.3813322,1296.82399 C43.3813322,1307.20449 51.7060432,1315.6617 62.0435344,1315.84237 L62.3813318,1315.84532 L167.035996,1315.84532 C194.763915,1315.76612 222.51797,1326.19882 243.802334,1347.13954 L244.445327,1347.77732 L266.66666,1369.99999 L236.509327,1400.18132 L214.275995,1377.94799 C201.405008,1365.077 184.557958,1358.59709 167.684962,1358.5121 L62.3813318,1358.51199 C28.6632526,1358.51199 1.2674717,1331.43117 0.722927891,1297.84376 L0.714666649,1296.82399 L0.714666649,1251.52532 C0.714666649,1217.80725 27.7941756,1190.41146 61.3828551,1189.86692 L62.4026651,1189.85866 L92.4826644,1189.85866 C128.752303,1189.85866 158.242264,1160.751 158.828437,1124.62226 L158.837329,1123.52533 L158.837329,910.509333 L201.503995,910.509333 Z M865.254512,32.9105553 L895.423844,63.0812212 L728.014515,230.49055 C703.930516,254.57455 664.87185,254.55855 640.789184,230.477217 L640.789184,230.477217 L622.379851,211.782551 C614.959851,204.362551 602.915852,204.347884 595.494518,211.766551 L595.494518,211.766551 L478.127855,328.965215 C458.379855,348.826547 431.029189,361.122547 400.811857,361.122547 L400.811857,361.122547 L220.503861,361.122547 C210.010528,361.122547 201.503862,369.649214 201.503862,380.14388 L201.503862,380.14388 L201.503862,858.509201 L158.837196,858.509201 L158.837196,380.14388 C158.837196,346.085214 186.445195,318.455881 220.503861,318.455881 L220.503861,318.455881 L400.811857,318.455881 C419.247856,318.455881 435.930522,310.934548 447.958522,298.794549 L447.958522,298.794549 L565.325186,181.597218 C589.407852,157.514552 628.467851,157.530552 652.549184,181.611885 L652.549184,181.611885 L670.95985,200.306551 C678.378516,207.726551 690.423849,207.741218 697.843849,200.321218 L697.843849,200.321218 L865.254512,32.9105553 Z" fill="#009D49"></path>
            <g id="GR-Indicator" transform="translate(589.834158, 1719.507392)">
                <circle id="Oval-1" fill="#009D49" cx="26" cy="26" r="26"></circle>
                <text id="GR" transform="translate(26.000000, 26.000000) scale(1, -1) translate(-26.000000, -26.000000) " font-family="HelveticaNeue-Bold, Helvetica Neue" font-size="29" font-weight="bold" fill="#FFFFFF">
                    <tspan x="4.5" y="36.5">GR</tspan>
                </text>
            </g>
            <g id="GR-Indicator-Copy" transform="translate(876.854177, 0.557379)">
                <circle id="Oval-1" fill="#009D49" cx="26" cy="26" r="26"></circle>
                <text id="GR" transform="translate(26.000000, 26.000000) scale(1, -1) translate(-26.000000, -26.000000) " font-family="HelveticaNeue-Bold, Helvetica Neue" font-size="29" font-weight="bold" fill="#FFFFFF">
                    <tspan x="4.5" y="36.5">GR</tspan>
                </text>
            </g>
        </g>

</svg>